<svg id="ba02c511-4cd5-4916-a7e5-1b1ba39f6acf" data-name="Layer 1" xmlns="http://www.w3.org/2000/svg" viewBox="0 0 463.08 461.55"><defs><style>.f03c6553-4cd2-4717-8616-798eea4177f5{fill:#f0f0f0;}.b9204f65-7d38-4e2a-815e-d20fc9c9f7ec{fill:#e0e0e0;}.ea55528d-bc48-4133-9a22-855ef956c6a0{fill:#fbbb2e;}.bf872f91-5e47-48d8-83a5-e99c21cfdfe6{opacity:0.2;}.b1c73df6-a4d3-481e-8271-bed2937437b3,.b841185a-dfa9-43f1-9638-c6f52966830c,.b93bcc94-5178-4796-a994-9bf2112bb481,.e12f4777-8064-4c8b-8fe2-221878ca2647{fill:#fff;}.ef6e1ff8-2614-4cf1-b964-bf1ff4124ea4{fill:#37474f;}.f15b58cc-07b1-415d-86a7-79acc58bc889{fill:#263238;}.b2d8a28e-83d1-43f8-9465-d267852af1f1,.b45a9a20-a30e-41ce-bf69-cd8f51d5e417{fill:#455a64;}.a5e8b98f-77c5-4424-b355-9124bf257296{opacity:0.15;}.a4b550c0-45f8-408b-9c95-ae2b43d6dd60,.a5e8b98f-77c5-4424-b355-9124bf257296,.b2d8a28e-83d1-43f8-9465-d267852af1f1,.b841185a-dfa9-43f1-9638-c6f52966830c,.b93bcc94-5178-4796-a994-9bf2112bb481,.ba2c9682-cdfe-461f-91e2-0c3d0119ce0f,.baeb4818-0a5a-46f1-b937-870822096a0d,.bebba934-9665-40b1-8c67-cf467a3e917a,.e12f4777-8064-4c8b-8fe2-221878ca2647,.faef97a9-c4f3-422e-bb7f-b3dd95e2a544{isolation:isolate;}.e12f4777-8064-4c8b-8fe2-221878ca2647{opacity:0.7;}.a4b550c0-45f8-408b-9c95-ae2b43d6dd60,.b2d8a28e-83d1-43f8-9465-d267852af1f1{opacity:0.8;}.a967db07-8b01-4061-b932-b909c01a262a{fill:#ebebeb;}.b841185a-dfa9-43f1-9638-c6f52966830c,.baeb4818-0a5a-46f1-b937-870822096a0d,.ed260938-1b61-4b2c-9af3-dd19d6d9dfd7{opacity:0.3;}.b93bcc94-5178-4796-a994-9bf2112bb481,.faef97a9-c4f3-422e-bb7f-b3dd95e2a544{opacity:0.4;}.ba2c9682-cdfe-461f-91e2-0c3d0119ce0f{opacity:0.5;}.a4b550c0-45f8-408b-9c95-ae2b43d6dd60,.e651ea06-d5f9-40a2-bb1c-0a1e7d9037b3{fill:#fafafa;}.bebba934-9665-40b1-8c67-cf467a3e917a{opacity:0.1;}.b829ee84-9002-4447-8a9e-44f36b7ad2a1{fill:#ffa8a7;}.f54815ab-358c-4bc3-8bfc-1f80feccf09f{fill:#f5f5f5;}.e624b645-7d3d-4b1c-8b8f-19cfb5b01934{fill:#f28f8f;}</style></defs><title>Dijitalfa-SEO-Tab-Görseli</title><g id="a7b8a282-fbd2-4817-a60a-598a3a1f25ab" data-name="freepik--Floor--inject-2"><ellipse id="e5959e80-860d-4674-b660-67ed760c90df" data-name="freepik--floor--inject-2" class="f03c6553-4cd2-4717-8616-798eea4177f5" cx="231.54" cy="327.87" rx="231.54" ry="133.68"/></g><g id="ac175180-265b-4877-bf0f-a1ab05cff488" data-name="freepik--Shadows--inject-2"><path id="a453a869-6a42-4bf8-a850-21b3b05881f1" data-name="freepik--Shadow--inject-2" class="b9204f65-7d38-4e2a-815e-d20fc9c9f7ec" d="M323.9,384.07a12.75,12.75,0,0,0-1.85-6.5h0c-.25-.42-.51-.82-.79-1.21l-.05-.06a12.44,12.44,0,0,0-.86-1.06l-.09-.09a11.43,11.43,0,0,0-.93-.91l-.09-.07a9.08,9.08,0,0,0-1-.76l-.6-.33-.27-.12-.31-.14-.44-.14h-.12a3,3,0,0,0-.52-.1h0a3.31,3.31,0,0,0-1.91.3h0c-5.29,2.65-35.77,22.05-49.8,30.79l-6.95,4.22a1.5,1.5,0,0,0-.52.48.22.22,0,0,1-.05.08c-.06.1-.11.2-.16.3a1.72,1.72,0,0,0-.07.21,2.76,2.76,0,0,0-.08.27v.18l-1.15.63-1,.56a40.29,40.29,0,0,0-7.92-5.88c-9.62-5.55-22.36-8.61-35.88-8.61s-26.26,3.06-35.88,8.61c-10,5.75-15.44,13.52-15.44,21.87s5.48,16.11,15.44,21.87c9.62,5.55,22.36,8.6,35.88,8.6s26.26-3.05,35.88-8.6c10-5.76,15.44-13.52,15.44-21.87a20.07,20.07,0,0,0-3.26-10.81l.92-.49a2.07,2.07,0,0,0,2,.19h0c4.76-2.62,51.16-22.4,60.65-27.49h0A4.7,4.7,0,0,0,323.9,384.07Zm-82,56.74c-8.3,4.79-19.49,7.43-31.49,7.43s-23.19-2.64-31.49-7.43c-7.13-4.12-11.06-9.19-11.06-14.27s3.93-10.16,11.06-14.27c8.3-4.8,19.48-7.44,31.49-7.44s23.19,2.64,31.49,7.44C249,416.38,253,421.45,253,426.54s-4,10.15-11.11,14.27Z" transform="translate(-18.27 -20.96)"/><path id="a8c40b50-c8c9-4f18-a069-b620c9d0b2b8" data-name="freepik--shadow--inject-2" class="b9204f65-7d38-4e2a-815e-d20fc9c9f7ec" d="M331,266.6l-47.06-27.23a9.57,9.57,0,0,0-8.66,0l-239.09,138c-2.39,1.38-2.39,3.62,0,5L83.26,409.6a9.57,9.57,0,0,0,8.66,0l89.59-51.73,13.78,8c7.29,4.21,19.11,4.21,26.41,0l41.05-23.53c7.3-4.21,7.3-11,0-15.25l-13.77-8,82-47.54C333.38,270.22,333.38,268,331,266.6Z" transform="translate(-18.27 -20.96)"/><ellipse class="b9204f65-7d38-4e2a-815e-d20fc9c9f7ec" cx="391.67" cy="347.9" rx="46.15" ry="26.65"/></g><g id="a253d957-c4dd-4d3e-a318-b79ca0aa66b9" data-name="freepik--Plant--inject-2"><g id="af8ee279-b8ca-475f-93a7-9b2e53884c26" data-name="freepik--Plants--inject-2"><path class="ea55528d-bc48-4133-9a22-855ef956c6a0" d="M436.16,338.77c0-6.25-1.24-17.76,4-28.56,3.84-7.83,10.69-15.43,17.07-14.67,5.93.7,6.47,9.83.79,16.08s-12.9,14.9-14.48,28.71l-4.09,10.26Z" transform="translate(-18.27 -20.96)"/><g class="bf872f91-5e47-48d8-83a5-e99c21cfdfe6"><path d="M436.16,338.77c0-6.25-1.24-17.76,4-28.56,3.84-7.83,10.69-15.43,17.07-14.67,5.93.7,6.47,9.83.79,16.08s-12.9,14.9-14.48,28.71l-4.09,10.26Z" transform="translate(-18.27 -20.96)"/></g><path class="b1c73df6-a4d3-481e-8271-bed2937437b3" d="M438.29,343.16a.45.45,0,0,0,.36-.45c-.72-17.76,5.06-32.51,16.71-42.64a.43.43,0,0,0-.57-.65h0c-11.86,10.31-17.74,25.29-17,43.33a.44.44,0,0,0,.45.42Z" transform="translate(-18.27 -20.96)"/><path class="ea55528d-bc48-4133-9a22-855ef956c6a0" d="M435,361.1a22.06,22.06,0,0,0,11,3.06c6.69.16,9.16-3.36,9.16-3.36s-3.41-5.79-7.35-7a37,37,0,0,1,12,3.13s4-.47,4.78-6.79c0,0-2.86-3.35-11.07-4.27a26.53,26.53,0,0,1,11.87-1c.55.14,1.72-8,1.91-11.78s-1.27-3.49-4.21-3.87-12.66.44-14.23,2.24-1.75,7.26-1.75,7.26-2.11-2.8-2.06-5.55a10.27,10.27,0,0,0-6,1c-3,1.54-4,2.77-4.16,5.1s-.35,5.83.59,8.54c0,0-2.77-4.47-2.63-8.35A42,42,0,0,0,430,345.3C428.69,348.7,430.24,356.93,435,361.1Z" transform="translate(-18.27 -20.96)"/><path class="b1c73df6-a4d3-481e-8271-bed2937437b3" d="M435.14,361.52a.41.41,0,0,0,.3-.28c3.8-11.67,21.71-27,28.55-29.34a.42.42,0,0,0,.28-.52v0a.42.42,0,0,0-.52-.28h0c-7,2.35-25.22,18-29.1,29.89a.44.44,0,0,0,.28.55A.53.53,0,0,0,435.14,361.52Z" transform="translate(-18.27 -20.96)"/></g></g><g id="ee49ef5c-06f1-4ce1-8dd8-51e877e6d03b" data-name="freepik--Device--inject-2"><g id="a08e2dfe-870f-4c7b-a2c0-683dfde41516" data-name="freepik--device--inject-2"><g id="a988e5d4-fc76-4891-9202-b75a06a75eec" data-name="freepik--Monitor--inject-2"><path class="ef6e1ff8-2614-4cf1-b964-bf1ff4124ea4" d="M221.68,362l35.38-20.46c3.64-2.1,5.46-4.86,5.46-7.62V329l-33.29-18.89a7.83,7.83,0,0,1-3.52-6.1V260.34L164,296.05v43.61a7.77,7.77,0,0,0,3.53,6.1L195.27,362C202.56,366.16,214.39,366.16,221.68,362Z" transform="translate(-18.27 -20.96)"/><path class="f15b58cc-07b1-415d-86a7-79acc58bc889" d="M178.78,347.38v4.9l-11.32-6.52a7.77,7.77,0,0,1-3.52-6.1V296.05l11.77-6.79c.24,3,.51,6.08.75,9.09l-8.25,4.77V337.2a7.73,7.73,0,0,0,3.52,6.1Z" transform="translate(-18.27 -20.96)"/><path class="b45a9a20-a30e-41ce-bf69-cd8f51d5e417" d="M168.21,337.21a7.77,7.77,0,0,0,3.52,6.1L195.27,357c7.29,4.21,19.11,4.21,26.41,0l35.39-20.45c7.29-4.21,7.29-11,0-15.24L233.52,307.6a7.77,7.77,0,0,1-3.53-6.1V267.42l-61.78,35.71Z" transform="translate(-18.27 -20.96)"/><path class="a5e8b98f-77c5-4424-b355-9124bf257296" d="M240.69,311.75h0l-7.17-4.14a7.77,7.77,0,0,1-3.53-6.1V267.42l-61.78,35.71v34.08a7.77,7.77,0,0,0,3.52,6.1l7.05,4.06Z" transform="translate(-18.27 -20.96)"/><path class="ef6e1ff8-2614-4cf1-b964-bf1ff4124ea4" d="M262.53,329v4.92c0,2.77-1.83,5.51-5.47,7.63L221.68,362a26.52,26.52,0,0,1-12.6,3.13v-4.9a26.52,26.52,0,0,0,12.6-3.13l35.38-20.46C260.7,334.48,262.53,331.72,262.53,329Z" transform="translate(-18.27 -20.96)"/><path class="b45a9a20-a30e-41ce-bf69-cd8f51d5e417" d="M69,384.26a9.49,9.49,0,0,0,8.53-.16l239-138a9.71,9.71,0,0,0,4.4-7.62V29.37a9.43,9.43,0,0,0-4.13-7.46,9.43,9.43,0,0,0-8.53.15l-239,138a9.71,9.71,0,0,0-4.4,7.62V376.79A9.43,9.43,0,0,0,69,384.26Z" transform="translate(-18.27 -20.96)"/><path class="ef6e1ff8-2614-4cf1-b964-bf1ff4124ea4" d="M77.53,384.09l239-137.95a9.71,9.71,0,0,0,4.4-7.62V29.37c0-2.81-2-3.95-4.4-2.54l-238.95,138a9.71,9.71,0,0,0-4.4,7.62v209.1C73.13,384.36,75.1,385.5,77.53,384.09Z" transform="translate(-18.27 -20.96)"/><path class="ea55528d-bc48-4133-9a22-855ef956c6a0" d="M81.39,353.92V175.14A5.81,5.81,0,0,1,84,170.57L310,40.12c1.45-.84,2.64-.16,2.64,1.52V220.43A5.81,5.81,0,0,1,310,225L84,355.45C82.57,356.29,81.39,355.61,81.39,353.92Z" transform="translate(-18.27 -20.96)"/><path class="e12f4777-8064-4c8b-8fe2-221878ca2647" d="M81.39,353.92V175.14A5.81,5.81,0,0,1,84,170.57L310,40.12c1.45-.84,2.64-.16,2.64,1.52V220.43A5.81,5.81,0,0,1,310,225L84,355.45C82.57,356.29,81.39,355.61,81.39,353.92Z" transform="translate(-18.27 -20.96)"/><path class="ea55528d-bc48-4133-9a22-855ef956c6a0" d="M196.55,306.65a2.55,2.55,0,0,1-1.32-.34,3.36,3.36,0,0,1-1.46-3.11,9.53,9.53,0,0,1,4.38-7.58h0a3,3,0,0,1,4.88,2.81,9.54,9.54,0,0,1-4.38,7.59A4.22,4.22,0,0,1,196.55,306.65ZM200.24,296a3.34,3.34,0,0,0-1.59.5h0a8.58,8.58,0,0,0-3.88,6.72,2,2,0,0,0,3.38,1.95,8.58,8.58,0,0,0,3.88-6.72,2.45,2.45,0,0,0-1-2.24A1.56,1.56,0,0,0,200.24,296Z" transform="translate(-18.27 -20.96)"/></g></g></g><g id="bd96fa2d-5cbc-4b32-bc28-8134bf3c4969" data-name="freepik--Window--inject-2"><g id="bee3a045-6d4a-4777-8f99-feddb9bdd908" data-name="freepik--window--inject-2"><path class="f03c6553-4cd2-4717-8616-798eea4177f5" d="M351.87,73.76,119.16,208V379.47a3,3,0,0,0,3,2.95,2.87,2.87,0,0,0,1.4-.37l4.15-2.39L347.53,252.94a9.58,9.58,0,0,0,4.34-7.52Z" transform="translate(-18.27 -20.96)"/><path class="b9204f65-7d38-4e2a-815e-d20fc9c9f7ec" d="M350.87,75.49V245.42a8.64,8.64,0,0,1-3.84,6.65L127.26,378.79l-4.15,2.39a2,2,0,0,1-1,.27,2,2,0,0,1-1.37-.56,1.9,1.9,0,0,1-.6-1.42V208.54l230.71-133m1-1.73L119.16,208V379.47a3,3,0,0,0,3,3,3,3,0,0,0,1.48-.4l4.15-2.39L347.53,252.94a9.58,9.58,0,0,0,4.34-7.52V73.76Z" transform="translate(-18.27 -20.96)"/><polygon class="b2d8a28e-83d1-43f8-9465-d267852af1f1" points="328.08 49.62 95.35 183.79 100.89 187 333.6 52.8 328.08 49.62"/><path class="a967db07-8b01-4061-b932-b909c01a262a" d="M120.72,382.09a3,3,0,0,1-1.56-2.62V208l-5.54-3.2V375.33q0,.32,0,.63a4.59,4.59,0,0,0,2.26,3.36l4.57,2.65.23.12Z" transform="translate(-18.27 -20.96)"/><path class="ea55528d-bc48-4133-9a22-855ef956c6a0" d="M113.62,204.84V193.27a4.79,4.79,0,0,1,2.16-3.76L344.19,57.83a4.77,4.77,0,0,1,4.32,0l1.19.69a4.78,4.78,0,0,1,2.17,3.75V73.85L119.16,208Z" transform="translate(-18.27 -20.96)"/><path class="baeb4818-0a5a-46f1-b937-870822096a0d" d="M113.62,204.84V193.27a4.79,4.79,0,0,1,2.16-3.76L344.19,57.83a4.77,4.77,0,0,1,4.32,0l1.19.69a4.78,4.78,0,0,1,2.17,3.75V73.85L119.16,208Z" transform="translate(-18.27 -20.96)"/><path class="ea55528d-bc48-4133-9a22-855ef956c6a0" d="M119.16,196.46a4.79,4.79,0,0,1,2.16-3.76L349.71,61c1.19-.7,2.16-.14,2.16,1.24V73.85L119.16,208Z" transform="translate(-18.27 -20.96)"/><path class="faef97a9-c4f3-422e-bb7f-b3dd95e2a544" d="M119.16,196.46a4.79,4.79,0,0,1,2.16-3.76L349.71,61c1.19-.7,2.16-.14,2.16,1.24V73.85L119.16,208Z" transform="translate(-18.27 -20.96)"/><path class="ea55528d-bc48-4133-9a22-855ef956c6a0" d="M119.79,194.32a4.48,4.48,0,0,0-.63,2.14V208l-5.53-3.19V193.26a4.44,4.44,0,0,1,.63-2.13Z" transform="translate(-18.27 -20.96)"/><path class="ba2c9682-cdfe-461f-91e2-0c3d0119ce0f" d="M119.79,194.32a4.48,4.48,0,0,0-.63,2.14V208l-5.53-3.19V193.26a4.44,4.44,0,0,1,.63-2.13Z" transform="translate(-18.27 -20.96)"/><path class="e651ea06-d5f9-40a2-bb1c-0a1e7d9037b3" d="M341.71,73.33c0,1.29.91,1.82,2,1.17a4.49,4.49,0,0,0,2-3.52c0-1.29-.91-1.82-2-1.17A4.49,4.49,0,0,0,341.71,73.33Z" transform="translate(-18.27 -20.96)"/><path class="e651ea06-d5f9-40a2-bb1c-0a1e7d9037b3" d="M333.59,78c0,1.29.91,1.82,2,1.17a4.49,4.49,0,0,0,2-3.52c0-1.29-.91-1.82-2-1.17A4.49,4.49,0,0,0,333.59,78Z" transform="translate(-18.27 -20.96)"/><path class="e651ea06-d5f9-40a2-bb1c-0a1e7d9037b3" d="M325.46,82.71c0,1.29.91,1.82,2,1.17a4.49,4.49,0,0,0,2-3.52c0-1.29-.91-1.82-2-1.17A4.49,4.49,0,0,0,325.46,82.71Z" transform="translate(-18.27 -20.96)"/><path class="e651ea06-d5f9-40a2-bb1c-0a1e7d9037b3" d="M119.16,208V379.47a3,3,0,0,0,3,2.95,2.87,2.87,0,0,0,1.4-.37l4.15-2.39,50.85-29.33V173.75Z" transform="translate(-18.27 -20.96)"/><polygon class="e651ea06-d5f9-40a2-bb1c-0a1e7d9037b3" points="164.4 155.69 164.4 322.19 328.72 227.32 328.72 60.81 164.4 155.69"/><path class="ea55528d-bc48-4133-9a22-855ef956c6a0" d="M165,193.87l-37.93,21.92a2.82,2.82,0,0,0-1.27,2.2v3.95c0,.81.57,1.13,1.27.73L165,200.75a2.82,2.82,0,0,0,1.27-2.2v-3.94C166.27,193.8,165.7,193.47,165,193.87Z" transform="translate(-18.27 -20.96)"/><path class="a4b550c0-45f8-408b-9c95-ae2b43d6dd60" d="M165,193.87l-37.93,21.92a2.82,2.82,0,0,0-1.27,2.2v3.95c0,.81.57,1.13,1.27.73L165,200.75a2.82,2.82,0,0,0,1.27-2.2v-3.94C166.27,193.8,165.7,193.47,165,193.87Z" transform="translate(-18.27 -20.96)"/><path class="b45a9a20-a30e-41ce-bf69-cd8f51d5e417" d="M173.44,195.44l-1.11-1.08a5.17,5.17,0,0,0,.35-1.78,2.11,2.11,0,0,0-.83-1.92,1.28,1.28,0,0,0-1.36.06,4.45,4.45,0,0,0-1.76,3.63,2.11,2.11,0,0,0,.84,1.92,1.11,1.11,0,0,0,.59.16,1.5,1.5,0,0,0,.77-.22,3,3,0,0,0,1-1l.92.88a.39.39,0,0,0,.3.13.43.43,0,0,0,.32-.14.44.44,0,0,0,0-.61Zm-2.95,0a.46.46,0,0,1-.48.06c-.19-.11-.4-.48-.4-1.16a3.61,3.61,0,0,1,1.32-2.87.57.57,0,0,1,.31-.1h.17c.18.11.39.47.39,1.16a3.68,3.68,0,0,1-1.31,2.92Z" transform="translate(-18.27 -20.96)"/><path class="b45a9a20-a30e-41ce-bf69-cd8f51d5e417" d="M126.73,234.26l-.85.49s-.09,0-.09-.07v-2.3a.21.21,0,0,1,.09-.18l.85-.49s.09,0,.09.07v2.3A.21.21,0,0,1,126.73,234.26Z" transform="translate(-18.27 -20.96)"/><path class="b45a9a20-a30e-41ce-bf69-cd8f51d5e417" d="M128,233.52l-.85.49c-.05,0-.09,0-.09-.07v-2.3a.2.2,0,0,1,.09-.17L128,231c.05,0,.09,0,.09.06v2.31A.24.24,0,0,1,128,233.52Z" transform="translate(-18.27 -20.96)"/><path class="b45a9a20-a30e-41ce-bf69-cd8f51d5e417" d="M129.28,232.78l-.85.5c-.05,0-.09,0-.09-.07V230.9a.22.22,0,0,1,.09-.17l.85-.49c.05,0,.09,0,.09.07v2.3A.2.2,0,0,1,129.28,232.78Z" transform="translate(-18.27 -20.96)"/><path class="b45a9a20-a30e-41ce-bf69-cd8f51d5e417" d="M126.73,237.23l-.85.49s-.09,0-.09-.07v-2.3a.21.21,0,0,1,.09-.18l.85-.49s.09,0,.09.07v2.3A.21.21,0,0,1,126.73,237.23Z" transform="translate(-18.27 -20.96)"/><path class="b45a9a20-a30e-41ce-bf69-cd8f51d5e417" d="M128,236.49l-.85.49c-.05,0-.09,0-.09-.07v-2.3a.2.2,0,0,1,.09-.17L128,234c.05,0,.09,0,.09.06v2.31A.27.27,0,0,1,128,236.49Z" transform="translate(-18.27 -20.96)"/><path class="b45a9a20-a30e-41ce-bf69-cd8f51d5e417" d="M129.28,235.75l-.85.5c-.05,0-.09,0-.09-.07v-2.31a.22.22,0,0,1,.09-.17l.85-.49c.05,0,.09,0,.09.07v2.3A.2.2,0,0,1,129.28,235.75Z" transform="translate(-18.27 -20.96)"/><path class="b45a9a20-a30e-41ce-bf69-cd8f51d5e417" d="M126.86,245.07l-1-.63v-.19l1-1.85a.07.07,0,0,1,.13,0v2.49C127,245,126.91,245.1,126.86,245.07Z" transform="translate(-18.27 -20.96)"/><path class="b45a9a20-a30e-41ce-bf69-cd8f51d5e417" d="M126.42,243.66l1.38-.79v.65l-1.38.8c-.11.07-.21,0-.21-.21A.6.6,0,0,1,126.42,243.66Z" transform="translate(-18.27 -20.96)"/><polygon class="b45a9a20-a30e-41ce-bf69-cd8f51d5e417" points="109.79 221.75 110.26 221.49 110.26 222.13 109.79 222.41 109.79 221.75"/><path class="b45a9a20-a30e-41ce-bf69-cd8f51d5e417" d="M129.8,242v2.41a.52.52,0,0,1-.22.45c-.11.07-.21,0-.21-.2v-2.08l-.58.33v-.65l.79-.46C129.7,241.77,129.8,241.86,129.8,242Z" transform="translate(-18.27 -20.96)"/><path class="b45a9a20-a30e-41ce-bf69-cd8f51d5e417" d="M127.27,250.48a4.52,4.52,0,0,0-1.45,3.9c.17,1.25.91,1.2,1,1.78,0,.07.05.09.09.07l.93-.53a.23.23,0,0,0,.1-.17c.1-.77,1.05-1.7,1.05-3.57C129,250.53,128.21,249.83,127.27,250.48Z" transform="translate(-18.27 -20.96)"/><path class="b45a9a20-a30e-41ce-bf69-cd8f51d5e417" d="M127.83,257.2l-.9.52c-.06,0-.11,0-.11-.09v-.82a.27.27,0,0,1,.11-.22l.9-.52c.06,0,.11,0,.11.09V257A.31.31,0,0,1,127.83,257.2Z" transform="translate(-18.27 -20.96)"/><path class="b45a9a20-a30e-41ce-bf69-cd8f51d5e417" d="M127.49,231a5.49,5.49,0,0,0-1.63,3.46,3.66,3.66,0,0,0,.23,1.88l-.3,1.58c0,.13,0,.19.12.11l.91-1a1.4,1.4,0,0,0,1.32-.38,5.49,5.49,0,0,0,1.63-3.46C130,231,128.84,229.91,127.49,231Zm.32,5.16c-.83.48-1.51-.17-1.51-1.46a4,4,0,0,1,1.51-3.2c.84-.48,1.52.17,1.52,1.46a4,4,0,0,1-1.52,3.22Z" transform="translate(-18.27 -20.96)"/><path class="b45a9a20-a30e-41ce-bf69-cd8f51d5e417" d="M127.49,261.37a5.44,5.44,0,0,0-1.63,3.45,3.7,3.7,0,0,0,.23,1.89l-.3,1.57c0,.13,0,.2.12.12l.91-1a1.4,1.4,0,0,0,1.32-.38,5.49,5.49,0,0,0,1.63-3.46C130,261.37,128.84,260.26,127.49,261.37Zm.32,5.16c-.83.48-1.51-.17-1.51-1.46a4,4,0,0,1,1.51-3.2c.84-.48,1.52.17,1.52,1.46A4,4,0,0,1,127.81,266.53Z" transform="translate(-18.27 -20.96)"/><path class="b45a9a20-a30e-41ce-bf69-cd8f51d5e417" d="M128.77,272.49a2.1,2.1,0,0,1-.8,1.69c-.44.26-.8-.09-.8-.77a2.13,2.13,0,0,1,.8-1.69C128.41,271.47,128.77,271.81,128.77,272.49Z" transform="translate(-18.27 -20.96)"/><path class="b45a9a20-a30e-41ce-bf69-cd8f51d5e417" d="M130.14,272.73a1.41,1.41,0,0,1-.53,1.13c-.3.17-.54-.06-.54-.51a1.39,1.39,0,0,1,.54-1.13C129.9,272.05,130.14,272.28,130.14,272.73Z" transform="translate(-18.27 -20.96)"/><path class="b45a9a20-a30e-41ce-bf69-cd8f51d5e417" d="M128.91,277.34,127,278.42V276a1.66,1.66,0,0,1,.69-1.31l.52-.3c.37-.21.68,0,.68.52Z" transform="translate(-18.27 -20.96)"/><path class="b45a9a20-a30e-41ce-bf69-cd8f51d5e417" d="M129.69,274.14l-.52.3v2.75l1-.57v-2.14C130.15,274.14,129.94,274,129.69,274.14Z" transform="translate(-18.27 -20.96)"/><path class="b45a9a20-a30e-41ce-bf69-cd8f51d5e417" d="M125.8,275.24c0,.45.24.68.53.51a1.39,1.39,0,0,0,.53-1.12c0-.46-.24-.69-.53-.52A1.42,1.42,0,0,0,125.8,275.24Z" transform="translate(-18.27 -20.96)"/><path class="b45a9a20-a30e-41ce-bf69-cd8f51d5e417" d="M126.25,276.12l.51-.3v2.76l-1,.56V277A1.08,1.08,0,0,1,126.25,276.12Z" transform="translate(-18.27 -20.96)"/><path class="b9204f65-7d38-4e2a-815e-d20fc9c9f7ec" d="M135,228.86,157.22,216c.6-.35,1.08-.1,1.08.55a2.3,2.3,0,0,1-1.08,1.8L135,231.21c-.6.34-1.08.1-1.08-.55A2.3,2.3,0,0,1,135,228.86Z" transform="translate(-18.27 -20.96)"/><path class="b9204f65-7d38-4e2a-815e-d20fc9c9f7ec" d="M135,239.31l22.21-12.82c.6-.34,1.08-.1,1.08.55a2.3,2.3,0,0,1-1.08,1.8L135,241.66c-.6.34-1.08.1-1.08-.55A2.3,2.3,0,0,1,135,239.31Z" transform="translate(-18.27 -20.96)"/><path class="b9204f65-7d38-4e2a-815e-d20fc9c9f7ec" d="M135,249.77,157.22,237c.6-.35,1.08-.1,1.08.54a2.3,2.3,0,0,1-1.08,1.8L135,252.11c-.6.35-1.08.1-1.08-.55A2.28,2.28,0,0,1,135,249.77Z" transform="translate(-18.27 -20.96)"/><path class="b9204f65-7d38-4e2a-815e-d20fc9c9f7ec" d="M135,260.22l22.21-12.82c.6-.35,1.08-.1,1.08.55a2.28,2.28,0,0,1-1.08,1.79L135,262.57c-.6.34-1.08.1-1.08-.55A2.3,2.3,0,0,1,135,260.22Z" transform="translate(-18.27 -20.96)"/><path class="b9204f65-7d38-4e2a-815e-d20fc9c9f7ec" d="M135,270.67l22.21-12.82c.6-.34,1.08-.1,1.08.55a2.3,2.3,0,0,1-1.08,1.8L135,273c-.6.34-1.08.1-1.08-.55A2.33,2.33,0,0,1,135,270.67Z" transform="translate(-18.27 -20.96)"/><path class="b45a9a20-a30e-41ce-bf69-cd8f51d5e417" d="M139.07,279.21l22.21-12.82c.6-.35,1.08-.1,1.08.54a2.3,2.3,0,0,1-1.08,1.8l-22.21,12.82c-.6.35-1.08.1-1.08-.54A2.3,2.3,0,0,1,139.07,279.21Z" transform="translate(-18.27 -20.96)"/><path class="b9204f65-7d38-4e2a-815e-d20fc9c9f7ec" d="M139.07,286.27l22.21-12.82c.6-.35,1.08-.1,1.08.55a2.28,2.28,0,0,1-1.08,1.79l-22.21,12.82c-.6.35-1.08.1-1.08-.54A2.3,2.3,0,0,1,139.07,286.27Z" transform="translate(-18.27 -20.96)"/><path class="b9204f65-7d38-4e2a-815e-d20fc9c9f7ec" d="M139.07,293.33l22.21-12.82c.6-.35,1.08-.1,1.08.55a2.28,2.28,0,0,1-1.08,1.79l-22.21,12.83c-.6.34-1.08.1-1.08-.55A2.3,2.3,0,0,1,139.07,293.33Z" transform="translate(-18.27 -20.96)"/><path class="b9204f65-7d38-4e2a-815e-d20fc9c9f7ec" d="M143.39,297.82,165.6,285c.6-.35,1.08-.1,1.08.54a2.3,2.3,0,0,1-1.08,1.8l-22.21,12.82c-.59.35-1.08.1-1.08-.54A2.3,2.3,0,0,1,143.39,297.82Z" transform="translate(-18.27 -20.96)"/><path class="b45a9a20-a30e-41ce-bf69-cd8f51d5e417" d="M138.2,303.89l1.81-3.18c.07-.12.07-.28,0-.32l-1.81-1.1c-.08-.05-.21.11-.21.28v4.28C138,304,138.12,304.05,138.2,303.89Z" transform="translate(-18.27 -20.96)"/><path class="b9204f65-7d38-4e2a-815e-d20fc9c9f7ec" d="M143.39,304.85,165.6,292c.6-.34,1.08-.1,1.08.55a2.3,2.3,0,0,1-1.08,1.8L143.39,307.2c-.59.35-1.08.1-1.08-.55A2.36,2.36,0,0,1,143.39,304.85Z" transform="translate(-18.27 -20.96)"/><path class="b45a9a20-a30e-41ce-bf69-cd8f51d5e417" d="M138.2,310.93l1.81-3.18c.07-.12.07-.28,0-.33l-1.81-1.1c-.08-.05-.21.12-.21.29v4.28C138,311.06,138.12,311.08,138.2,310.93Z" transform="translate(-18.27 -20.96)"/><path class="b9204f65-7d38-4e2a-815e-d20fc9c9f7ec" d="M143.39,311.89l22.21-12.82c.6-.35,1.08-.1,1.08.55a2.3,2.3,0,0,1-1.08,1.8l-22.21,12.82c-.59.34-1.08.1-1.08-.55A2.36,2.36,0,0,1,143.39,311.89Z" transform="translate(-18.27 -20.96)"/><path class="b45a9a20-a30e-41ce-bf69-cd8f51d5e417" d="M138.2,318l1.81-3.19c.07-.12.07-.28,0-.32l-1.81-1.1c-.08-.05-.21.12-.21.29V318C138,318.1,138.12,318.12,138.2,318Z" transform="translate(-18.27 -20.96)"/><path class="b9204f65-7d38-4e2a-815e-d20fc9c9f7ec" d="M143.39,318.93l22.21-12.82c.6-.35,1.08-.1,1.08.54a2.3,2.3,0,0,1-1.08,1.8l-22.21,12.82c-.59.35-1.08.1-1.08-.54A2.3,2.3,0,0,1,143.39,318.93Z" transform="translate(-18.27 -20.96)"/><path class="b45a9a20-a30e-41ce-bf69-cd8f51d5e417" d="M138.2,325l1.81-3.18c.07-.12.07-.28,0-.32l-1.81-1.1c-.08-.06-.21.11-.21.28V325C138,325.13,138.12,325.16,138.2,325Z" transform="translate(-18.27 -20.96)"/><path class="b9204f65-7d38-4e2a-815e-d20fc9c9f7ec" d="M143.39,326l22.21-12.82c.6-.34,1.08-.1,1.08.55a2.3,2.3,0,0,1-1.08,1.8l-22.21,12.82c-.59.34-1.08.1-1.08-.55A2.36,2.36,0,0,1,143.39,326Z" transform="translate(-18.27 -20.96)"/><path class="b45a9a20-a30e-41ce-bf69-cd8f51d5e417" d="M138.2,332l1.81-3.18c.07-.12.07-.28,0-.33l-1.81-1.1c-.08-.05-.21.12-.21.29V332C138,332.17,138.12,332.19,138.2,332Z" transform="translate(-18.27 -20.96)"/><path class="b9204f65-7d38-4e2a-815e-d20fc9c9f7ec" d="M143.39,333l22.21-12.82c.6-.35,1.08-.1,1.08.55a2.28,2.28,0,0,1-1.08,1.79l-22.21,12.83c-.59.34-1.08.1-1.08-.55A2.36,2.36,0,0,1,143.39,333Z" transform="translate(-18.27 -20.96)"/><path class="b45a9a20-a30e-41ce-bf69-cd8f51d5e417" d="M138.2,339.08l1.81-3.19c.07-.12.07-.28,0-.32l-1.81-1.1c-.08-.05-.21.12-.21.29V339C138,339.21,138.12,339.23,138.2,339.08Z" transform="translate(-18.27 -20.96)"/><path class="b9204f65-7d38-4e2a-815e-d20fc9c9f7ec" d="M143.39,340l22.21-12.82c.6-.35,1.08-.1,1.08.54a2.3,2.3,0,0,1-1.08,1.8l-22.21,12.82c-.59.35-1.08.1-1.08-.55A2.35,2.35,0,0,1,143.39,340Z" transform="translate(-18.27 -20.96)"/><path class="b45a9a20-a30e-41ce-bf69-cd8f51d5e417" d="M138.2,346.11l1.81-3.18c.07-.12.07-.28,0-.32l-1.81-1.1c-.08-.06-.21.11-.21.28v4.28C138,346.24,138.12,346.27,138.2,346.11Z" transform="translate(-18.27 -20.96)"/><path class="b9204f65-7d38-4e2a-815e-d20fc9c9f7ec" d="M143.39,347.07l22.21-12.82c.6-.34,1.08-.1,1.08.55a2.3,2.3,0,0,1-1.08,1.8l-22.21,12.82c-.59.34-1.08.1-1.08-.55A2.36,2.36,0,0,1,143.39,347.07Z" transform="translate(-18.27 -20.96)"/><path class="b45a9a20-a30e-41ce-bf69-cd8f51d5e417" d="M138.2,353.15,140,350c.07-.12.07-.28,0-.33l-1.81-1.1c-.08-.05-.21.12-.21.29v4.28C138,353.28,138.12,353.3,138.2,353.15Z" transform="translate(-18.27 -20.96)"/><path class="f03c6553-4cd2-4717-8616-798eea4177f5" d="M187.82,199.48l73-42.14a2.38,2.38,0,0,0,1.08-1.87V136.86c0-.69-.49-1-1.08-.62l-73,42.13a2.38,2.38,0,0,0-1.09,1.87v18.62C186.73,199.55,187.22,199.83,187.82,199.48Z" transform="translate(-18.27 -20.96)"/><path class="b45a9a20-a30e-41ce-bf69-cd8f51d5e417" d="M194.18,186.35h0l.48-2-.66.38h0v-.55l1.06-.61h0a.06.06,0,0,1,0,.06v.51l-.48,2v.12l-.32.18h0a.09.09,0,0,1-.08-.08Z" transform="translate(-18.27 -20.96)"/><path class="b45a9a20-a30e-41ce-bf69-cd8f51d5e417" d="M196,183a.5.5,0,0,1,.29-.09.3.3,0,0,1,.2.08.49.49,0,0,1,.11.23,1.82,1.82,0,0,1,0,.33v.61a2.41,2.41,0,0,1,0,.38,1.65,1.65,0,0,1-.11.36,2.14,2.14,0,0,1-.2.32,1.68,1.68,0,0,1-.29.24.62.62,0,0,1-.29.09.34.34,0,0,1-.19-.09.4.4,0,0,1-.12-.23,1.82,1.82,0,0,1,0-.33v-.6a2.41,2.41,0,0,1,0-.38,1.23,1.23,0,0,1,.12-.37,2,2,0,0,1,.19-.31A1,1,0,0,1,196,183Zm.24,1.38v-.73a.17.17,0,0,0,0-.1.09.09,0,0,0-.07,0h-.11a.52.52,0,0,0-.11.1.75.75,0,0,0-.07.12v1a.17.17,0,0,0,0,.1h.18a.52.52,0,0,0,.11-.1.24.24,0,0,0,.07-.12.38.38,0,0,0,0-.15.84.84,0,0,0-.05-.17Z" transform="translate(-18.27 -20.96)"/><path class="b45a9a20-a30e-41ce-bf69-cd8f51d5e417" d="M197.49,182.6v.47a.6.6,0,0,1-.06.19.91.91,0,0,1-.11.16.64.64,0,0,1-.15.13H197a.11.11,0,0,1-.11,0,.24.24,0,0,1-.06-.11.54.54,0,0,1,0-.18V183a.67.67,0,0,1,0-.2.6.6,0,0,1,.06-.19.62.62,0,0,1,.11-.17.44.44,0,0,1,.15-.12h.26l.06.12A.43.43,0,0,1,197.49,182.6Zm.55-.72v-.07h.05l.18-.11h0l-1.1,2.86v.06l0,0-.18.1h0Zm-1,1.22a.24.24,0,0,0,0,.12h.07a.27.27,0,0,0,.07-.08.38.38,0,0,0,0-.15v-.22a.24.24,0,0,0,0-.12m-.07,0a.16.16,0,0,0-.07.09.33.33,0,0,0,0,.14.81.81,0,0,0,0,.22Zm1.4.55v.47l-.06.19a.91.91,0,0,1-.11.16.64.64,0,0,1-.15.13h-.26a.23.23,0,0,1-.06-.12.54.54,0,0,1,0-.18v-.25a.74.74,0,0,1,0-.21.6.6,0,0,1,.06-.19.68.68,0,0,1,.07-.2.44.44,0,0,1,.15-.12h.26a.34.34,0,0,1,.06.12Zm-.44.5a.24.24,0,0,0,0,.12h.07c.07,0,.05,0,.07-.08a.38.38,0,0,0,0-.15v-.22a.24.24,0,0,0,0-.12m-.07,0a.16.16,0,0,0-.07.09.33.33,0,0,0,0,.14.81.81,0,0,0,0,.22Z" transform="translate(-18.27 -20.96)"/><path class="b45a9a20-a30e-41ce-bf69-cd8f51d5e417" d="M194.17,180.62l-.73-1.13a14.38,14.38,0,0,0-1.73,4.67l1.18-.1A10.92,10.92,0,0,1,194.17,180.62Z" transform="translate(-18.27 -20.96)"/><path class="b45a9a20-a30e-41ce-bf69-cd8f51d5e417" d="M196.24,178.38v-1.91a8.22,8.22,0,0,0-2.8,3l.73,1.13A6,6,0,0,1,196.24,178.38Z" transform="translate(-18.27 -20.96)"/><path class="b45a9a20-a30e-41ce-bf69-cd8f51d5e417" d="M192.72,185.84a9.67,9.67,0,0,1,.17-1.78l-1.18.1a12.06,12.06,0,0,0-.24,2.4,8.49,8.49,0,0,0,.24,2.13l1.18-1.28A6.87,6.87,0,0,1,192.72,185.84Z" transform="translate(-18.27 -20.96)"/><path class="ea55528d-bc48-4133-9a22-855ef956c6a0" d="M200.77,178.92a4,4,0,0,0-1.73-2.67,2.81,2.81,0,0,0-2.8.22v1.91a2.07,2.07,0,0,1,2.07-.15,3,3,0,0,1,1.28,2,6.87,6.87,0,0,1,.17,1.57,9.67,9.67,0,0,1-.17,1.78,11.16,11.16,0,0,1-1.28,3.44,6.36,6.36,0,0,1-2.07,2.24,2,2,0,0,1-2.07.15,2.89,2.89,0,0,1-1.28-2l-1.18,1.28a3.9,3.9,0,0,0,1.73,2.67,2.79,2.79,0,0,0,2.8-.22,8.31,8.31,0,0,0,2.8-3,14.65,14.65,0,0,0,1.73-4.66,13,13,0,0,0,.23-2.41A9.19,9.19,0,0,0,200.77,178.92Z" transform="translate(-18.27 -20.96)"/><path class="b45a9a20-a30e-41ce-bf69-cd8f51d5e417" d="M208.13,173.68l22.2-12.82c.6-.35,1.09-.1,1.09.54a2.31,2.31,0,0,1-1.09,1.8L208.13,176c-.6.35-1.09.1-1.09-.54A2.34,2.34,0,0,1,208.13,173.68Z" transform="translate(-18.27 -20.96)"/><path class="b9204f65-7d38-4e2a-815e-d20fc9c9f7ec" d="M208.13,178.41l38.45-22.2c.6-.35,1.08-.1,1.08.55a2.28,2.28,0,0,1-1.08,1.79l-38.45,22.2c-.6.35-1.09.1-1.09-.55A2.31,2.31,0,0,1,208.13,178.41Z" transform="translate(-18.27 -20.96)"/><path class="f03c6553-4cd2-4717-8616-798eea4177f5" d="M267,153.75l73-42.14a2.4,2.4,0,0,0,1.08-1.88V91.12c0-.69-.48-1-1.08-.62l-73,42.13a2.4,2.4,0,0,0-1.08,1.88v18.61C265.94,153.81,266.42,154.09,267,153.75Z" transform="translate(-18.27 -20.96)"/><path class="b45a9a20-a30e-41ce-bf69-cd8f51d5e417" d="M273.74,138.91a1.32,1.32,0,0,1,.06-.39,1.51,1.51,0,0,1,.14-.35,1.94,1.94,0,0,1,.21-.29,1.16,1.16,0,0,1,.24-.2,1.13,1.13,0,0,1,.24-.08.31.31,0,0,1,.21.05.52.52,0,0,1,.15.18,1.26,1.26,0,0,1,.05.33.61.61,0,0,1,0,.19v.18a1.09,1.09,0,0,1-.05.17l-.06.16-.42,1.14v.06a.12.12,0,0,1-.05.05l-.35.2h0a0,0,0,0,1,0-.05h0l.29-.77h-.21a.28.28,0,0,1-.17-.07.36.36,0,0,1-.12-.18A.84.84,0,0,1,273.74,138.91Zm.89-.51a.24.24,0,0,0,0-.12.1.1,0,0,0-.05-.06h-.17l-.09.07-.07.11a.31.31,0,0,0-.06.13v.13a.24.24,0,0,0,0,.12.06.06,0,0,0,.06.06h.16a.34.34,0,0,0,.09-.08.39.39,0,0,0,.08-.1.5.5,0,0,0,.05-.13v-.13Z" transform="translate(-18.27 -20.96)"/><path class="b45a9a20-a30e-41ce-bf69-cd8f51d5e417" d="M275.88,136.83a.47.47,0,0,1,.28-.09.3.3,0,0,1,.2.08.57.57,0,0,1,.12.23.91.91,0,0,1,0,.33V138a2.41,2.41,0,0,1,0,.38,2.53,2.53,0,0,1-.12.36,1.55,1.55,0,0,1-.2.32,1.61,1.61,0,0,1-.28.24.75.75,0,0,1-.29.09.37.37,0,0,1-.2-.09.51.51,0,0,1-.12-.23,1.71,1.71,0,0,1,0-.32v-.61a2.41,2.41,0,0,1,0-.38,2.29,2.29,0,0,1,.12-.37,1.27,1.27,0,0,1,.2-.31A1,1,0,0,1,275.88,136.83Zm.23,1.38a5.61,5.61,0,0,0,0-.58.33.33,0,0,0,0-.14.21.21,0,0,0,0-.11h-.18a.52.52,0,0,0-.11.1.83.83,0,0,0-.08.12v.32a5.42,5.42,0,0,0,0,.57v.25h.19l.11-.09a.54.54,0,0,0,.07-.13v-.31Z" transform="translate(-18.27 -20.96)"/><path class="b45a9a20-a30e-41ce-bf69-cd8f51d5e417" d="M277.41,136.44a1.13,1.13,0,0,1,0,.26v.21a1.46,1.46,0,0,1-.07.19.86.86,0,0,1-.1.16.65.65,0,0,1-.16.13.27.27,0,0,1-.15.05h-.1a.47.47,0,0,1-.07-.12.54.54,0,0,1,0-.18v-.46a1.07,1.07,0,0,1,.07-.19.59.59,0,0,1,.1-.17.57.57,0,0,1,.15-.12h.26a.47.47,0,0,1,.07.12Zm.56-.72v-.07h0l.18-.11h0l-1.09,2.86v.11l-.18.1h0Zm-1,1.22v.12s0,0,.06,0a.1.1,0,0,0,.07-.08v-.49H277a.15.15,0,0,0-.06.09.33.33,0,0,0,0,.14Zm1.47.1a1.13,1.13,0,0,1,0,.26v.21a1.46,1.46,0,0,1-.07.19.57.57,0,0,1-.11.16.37.37,0,0,1-.15.13h-.25a.47.47,0,0,1-.07-.12.49.49,0,0,1,0-.17,1.13,1.13,0,0,1,0-.26v-.21a1.07,1.07,0,0,1,.07-.19.54.54,0,0,1,.1-.16.47.47,0,0,1,.15-.13h.26a.47.47,0,0,1,.07.12V137Zm-.44.5v.12s0,0,.06,0a.1.1,0,0,0,.07-.08.38.38,0,0,0,0-.15.81.81,0,0,0,0-.22.24.24,0,0,0,0-.12h-.07a.15.15,0,0,0-.06.09.33.33,0,0,0,0,.14Z" transform="translate(-18.27 -20.96)"/><path class="b45a9a20-a30e-41ce-bf69-cd8f51d5e417" d="M276.1,132.26v-1.91a8.22,8.22,0,0,0-2.8,3l.73,1.13A6,6,0,0,1,276.1,132.26Z" transform="translate(-18.27 -20.96)"/><path class="ea55528d-bc48-4133-9a22-855ef956c6a0" d="M280.63,132.8a4,4,0,0,0-1.73-2.67,2.79,2.79,0,0,0-2.8.22v1.91a2,2,0,0,1,2.07-.15,3,3,0,0,1,1.28,2,6.87,6.87,0,0,1,.17,1.57,9.67,9.67,0,0,1-.17,1.78,10.92,10.92,0,0,1-1.28,3.44,6.36,6.36,0,0,1-2.07,2.24,2,2,0,0,1-2.07.15,2.89,2.89,0,0,1-1.28-2,6.87,6.87,0,0,1-.17-1.57,9.67,9.67,0,0,1,.17-1.78A10.85,10.85,0,0,1,274,134.5l-.73-1.13a14.41,14.41,0,0,0-1.73,4.66,13.86,13.86,0,0,0-.24,2.41,9.53,9.53,0,0,0,.24,2.13,3.9,3.9,0,0,0,1.73,2.67,2.79,2.79,0,0,0,2.8-.22,8.31,8.31,0,0,0,2.8-3h0a14.65,14.65,0,0,0,1.73-4.66,13,13,0,0,0,.23-2.41A9.16,9.16,0,0,0,280.63,132.8Z" transform="translate(-18.27 -20.96)"/><path class="b45a9a20-a30e-41ce-bf69-cd8f51d5e417" d="M288,127.56l22.21-12.83c.59-.34,1.08-.1,1.08.55a2.3,2.3,0,0,1-1.08,1.8L288,129.9c-.6.35-1.08.1-1.08-.55A2.28,2.28,0,0,1,288,127.56Z" transform="translate(-18.27 -20.96)"/><path class="b9204f65-7d38-4e2a-815e-d20fc9c9f7ec" d="M288,132.28l38.45-22.19c.6-.35,1.09-.1,1.09.55a2.31,2.31,0,0,1-1.09,1.79L288,134.63c-.6.34-1.08.1-1.08-.55A2.3,2.3,0,0,1,288,132.28Z" transform="translate(-18.27 -20.96)"/><path class="b45a9a20-a30e-41ce-bf69-cd8f51d5e417" d="M195.25,204.59l15.58-9c.6-.35,1.08-.1,1.08.54a2.3,2.3,0,0,1-1.08,1.8l-15.58,9c-.6.35-1.08.1-1.08-.55A2.28,2.28,0,0,1,195.25,204.59Z" transform="translate(-18.27 -20.96)"/><path class="b9204f65-7d38-4e2a-815e-d20fc9c9f7ec" d="M340.55,126.52h0m-.46.27v119a1.39,1.39,0,0,1-.58,1l-151.78,87.6v-119a1.45,1.45,0,0,1,.59-1l1.89-1.09a3.37,3.37,0,0,0,1.59-2.74V203.7a1.39,1.39,0,0,1,.58-1l21.79-12.58v6.4a1.62,1.62,0,0,0,1.48,1.76h.12a2,2,0,0,0,1-.28L340.11,126.8m-125.48,63h0m125.86-64.31a1,1,0,0,0-.48.15L216.25,197.13a1,1,0,0,1-.48.15c-.36,0-.6-.29-.6-.77v-6.89c0-.49-.25-.77-.6-.77a1,1,0,0,0-.48.15l-22.21,12.82a2.4,2.4,0,0,0-1.08,1.88v6.88a2.38,2.38,0,0,1-1.09,1.87l-1.89,1.1a2.38,2.38,0,0,0-1.09,1.87V334.87c0,.49.25.78.6.78a1.08,1.08,0,0,0,.49-.15L340,247.63a2.37,2.37,0,0,0,1.08-1.87V126.3c0-.49-.24-.77-.6-.77Z" transform="translate(-18.27 -20.96)"/><path class="b9204f65-7d38-4e2a-815e-d20fc9c9f7ec" d="M196.52,220.61a1.09,1.09,0,0,1-.53-.13,1.27,1.27,0,0,1-.57-1.14v-4.53a2.89,2.89,0,0,1,1.34-2.31l12.07-7a1.15,1.15,0,0,1,1.83,1.06v4.53a2.89,2.89,0,0,1-1.34,2.31l-12.06,7A1.58,1.58,0,0,1,196.52,220.61Zm.74-7.24a1.86,1.86,0,0,0-.84,1.44v4.53a.37.37,0,0,0,.07.27.38.38,0,0,0,.27-.08l12.07-6.95a1.93,1.93,0,0,0,.83-1.45V206.6a.37.37,0,0,0-.07-.27.38.38,0,0,0-.27.08Z" transform="translate(-18.27 -20.96)"/><path class="b9204f65-7d38-4e2a-815e-d20fc9c9f7ec" d="M198,215.23l7.87-4.56c.4-.23.72-.07.72.36a1.53,1.53,0,0,1-.72,1.2L198,216.8c-.4.23-.72.06-.72-.37A1.55,1.55,0,0,1,198,215.23Z" transform="translate(-18.27 -20.96)"/><path class="b45a9a20-a30e-41ce-bf69-cd8f51d5e417" d="M207.67,209.92l.65.93a.12.12,0,0,0,.1-.06l.65-1.68V209l-1.3.75A.17.17,0,0,0,207.67,209.92Z" transform="translate(-18.27 -20.96)"/><path class="ea55528d-bc48-4133-9a22-855ef956c6a0" d="M194.86,264.56c.58-.33,1-.06,1,.6a2.3,2.3,0,0,1-1,1.81c-.58.33-1,.06-1-.6A2.3,2.3,0,0,1,194.86,264.56Z" transform="translate(-18.27 -20.96)"/><path class="ea55528d-bc48-4133-9a22-855ef956c6a0" d="M203,255.18c.58-.33,1.05-.06,1.05.6a2.3,2.3,0,0,1-1.05,1.81c-.57.33-1,.06-1-.6A2.3,2.3,0,0,1,203,255.18Z" transform="translate(-18.27 -20.96)"/><path class="ea55528d-bc48-4133-9a22-855ef956c6a0" d="M211.11,250.49c.57-.33,1-.06,1,.6a2.3,2.3,0,0,1-1,1.81c-.58.33-1.05.06-1.05-.6A2.3,2.3,0,0,1,211.11,250.49Z" transform="translate(-18.27 -20.96)"/><path class="ea55528d-bc48-4133-9a22-855ef956c6a0" d="M219.23,247.86c.58-.33,1-.06,1,.6a2.3,2.3,0,0,1-1,1.81c-.58.33-1,.06-1-.6A2.3,2.3,0,0,1,219.23,247.86Z" transform="translate(-18.27 -20.96)"/><path class="ea55528d-bc48-4133-9a22-855ef956c6a0" d="M227.36,239.41c.58-.33,1-.06,1,.61a2.3,2.3,0,0,1-1,1.8c-.57.34-1,.07-1-.6A2.32,2.32,0,0,1,227.36,239.41Z" transform="translate(-18.27 -20.96)"/><path class="ea55528d-bc48-4133-9a22-855ef956c6a0" d="M235.48,236.42c.58-.33,1-.06,1,.6a2.3,2.3,0,0,1-1,1.81c-.58.33-1,.06-1-.6A2.3,2.3,0,0,1,235.48,236.42Z" transform="translate(-18.27 -20.96)"/><path class="ea55528d-bc48-4133-9a22-855ef956c6a0" d="M243.6,227c.58-.34,1.05-.07,1.05.6a2.3,2.3,0,0,1-1.05,1.81c-.57.33-1,.06-1-.61A2.3,2.3,0,0,1,243.6,227Z" transform="translate(-18.27 -20.96)"/><path class="ea55528d-bc48-4133-9a22-855ef956c6a0" d="M251.73,224.69c.57-.33,1-.06,1,.61a2.3,2.3,0,0,1-1,1.8c-.58.34-1,.07-1-.6A2.3,2.3,0,0,1,251.73,224.69Z" transform="translate(-18.27 -20.96)"/><path class="ea55528d-bc48-4133-9a22-855ef956c6a0" d="M259.85,198.89c.58-.33,1-.06,1,.61a2.3,2.3,0,0,1-1,1.81c-.58.33-1,.06-1-.61A2.3,2.3,0,0,1,259.85,198.89Z" transform="translate(-18.27 -20.96)"/><path class="ea55528d-bc48-4133-9a22-855ef956c6a0" d="M268,213c.57-.34,1-.07,1,.6a2.32,2.32,0,0,1-1,1.81c-.58.33-1.05.06-1.05-.61A2.29,2.29,0,0,1,268,213Z" transform="translate(-18.27 -20.96)"/><path class="ea55528d-bc48-4133-9a22-855ef956c6a0" d="M276.1,213c.58-.34,1-.07,1,.6a2.3,2.3,0,0,1-1,1.81c-.58.33-1,.06-1-.61A2.3,2.3,0,0,1,276.1,213Z" transform="translate(-18.27 -20.96)"/><path class="ea55528d-bc48-4133-9a22-855ef956c6a0" d="M284.22,213c.58-.34,1-.07,1,.6a2.3,2.3,0,0,1-1,1.81c-.57.33-1,.06-1-.61A2.3,2.3,0,0,1,284.22,213Z" transform="translate(-18.27 -20.96)"/><path class="ea55528d-bc48-4133-9a22-855ef956c6a0" d="M292.35,198.9c.57-.34,1-.07,1,.6a2.32,2.32,0,0,1-1,1.81c-.58.33-1.05.06-1.05-.61A2.29,2.29,0,0,1,292.35,198.9Z" transform="translate(-18.27 -20.96)"/><path class="ea55528d-bc48-4133-9a22-855ef956c6a0" d="M300.47,196.2c.58-.33,1-.06,1,.6a2.3,2.3,0,0,1-1,1.81c-.58.33-1,.06-1-.6A2.3,2.3,0,0,1,300.47,196.2Z" transform="translate(-18.27 -20.96)"/><path class="ea55528d-bc48-4133-9a22-855ef956c6a0" d="M308.62,184.82c.58-.33,1.05-.06,1.05.61a2.29,2.29,0,0,1-1.05,1.8c-.57.34-1,.07-1-.6A2.32,2.32,0,0,1,308.62,184.82Z" transform="translate(-18.27 -20.96)"/><ellipse class="ea55528d-bc48-4133-9a22-855ef956c6a0" cx="316.73" cy="186.05" rx="1.48" ry="0.85" transform="translate(-21.03 346.35) rotate(-60)"/><ellipse class="ea55528d-bc48-4133-9a22-855ef956c6a0" cx="324.86" cy="186.05" rx="1.48" ry="0.85" transform="translate(-16.96 353.39) rotate(-60)"/><path class="ea55528d-bc48-4133-9a22-855ef956c6a0" d="M333,180.13c.57-.33,1-.06,1,.61a2.3,2.3,0,0,1-1,1.8c-.58.34-1.05.07-1.05-.6A2.3,2.3,0,0,1,333,180.13Z" transform="translate(-18.27 -20.96)"/><path class="ea55528d-bc48-4133-9a22-855ef956c6a0" d="M194.84,266a.27.27,0,0,1-.17-.06.25.25,0,0,1,0-.36l8.2-9.42.07-.06,8.06-4.65,8.11-2.63,8.08-8.41.1-.06,8.06-3,8.08-9.33.12-.08,8-2.31L259.61,200a.25.25,0,0,1,.21-.18.26.26,0,0,1,.25.13l8.05,13.94h16l8-13.89a.24.24,0,0,1,.14-.12l8.05-2.67,8.07-11.31a.28.28,0,0,1,.21-.1h16.18l8.06-4.66a.25.25,0,1,1,.25.43l-8.12,4.7H308.72l-8.05,11.27a.27.27,0,0,1-.12.09l-8,2.67-8.08,14a.25.25,0,0,1-.22.12H268a.26.26,0,0,1-.21-.12L260,200.72,252,226a.29.29,0,0,1-.17.17l-8.06,2.32-8.07,9.33-.1.07-8.08,3-8.08,8.41a.21.21,0,0,1-.1.06L211.21,252l-8,4.62L195,265.94A.23.23,0,0,1,194.84,266Z" transform="translate(-18.27 -20.96)"/><path class="b9204f65-7d38-4e2a-815e-d20fc9c9f7ec" d="M194.86,271a.5.5,0,0,1-.25-.94l138.11-79.73a.5.5,0,0,1,.66.25.5.5,0,0,1-.16.61l-138.11,79.7A.47.47,0,0,1,194.86,271Z" transform="translate(-18.27 -20.96)"/><path class="ea55528d-bc48-4133-9a22-855ef956c6a0" d="M194.86,259.87c.58-.33,1-.06,1,.6a2.3,2.3,0,0,1-1,1.81c-.58.33-1,.06-1-.6A2.3,2.3,0,0,1,194.86,259.87Z" transform="translate(-18.27 -20.96)"/><path class="ea55528d-bc48-4133-9a22-855ef956c6a0" d="M203,245.8c.58-.33,1.05-.06,1.05.6a2.3,2.3,0,0,1-1.05,1.81c-.57.33-1,.06-1-.6A2.3,2.3,0,0,1,203,245.8Z" transform="translate(-18.27 -20.96)"/><ellipse class="ea55528d-bc48-4133-9a22-855ef956c6a0" cx="211.12" cy="245.26" rx="1.48" ry="0.85" transform="translate(-125.11 284.5) rotate(-60)"/><path class="ea55528d-bc48-4133-9a22-855ef956c6a0" d="M219.23,227c.58-.34,1-.07,1,.6a2.3,2.3,0,0,1-1,1.81c-.58.33-1,.06-1-.61A2.3,2.3,0,0,1,219.23,227Z" transform="translate(-18.27 -20.96)"/><path class="ea55528d-bc48-4133-9a22-855ef956c6a0" d="M227.36,231.73c.58-.33,1-.06,1,.6a2.3,2.3,0,0,1-1,1.81c-.57.33-1,.06-1-.6A2.3,2.3,0,0,1,227.36,231.73Z" transform="translate(-18.27 -20.96)"/><path class="ea55528d-bc48-4133-9a22-855ef956c6a0" d="M235.48,229.38c.58-.33,1-.06,1,.61a2.3,2.3,0,0,1-1,1.8c-.58.34-1,.07-1-.6A2.3,2.3,0,0,1,235.48,229.38Z" transform="translate(-18.27 -20.96)"/><path class="ea55528d-bc48-4133-9a22-855ef956c6a0" d="M243.6,222.35c.58-.34,1.05-.07,1.05.6a2.3,2.3,0,0,1-1.05,1.81c-.57.33-1,.06-1-.6A2.3,2.3,0,0,1,243.6,222.35Z" transform="translate(-18.27 -20.96)"/><path class="ea55528d-bc48-4133-9a22-855ef956c6a0" d="M251.73,213c.57-.34,1-.07,1,.6a2.32,2.32,0,0,1-1,1.81c-.58.33-1,.06-1-.61A2.3,2.3,0,0,1,251.73,213Z" transform="translate(-18.27 -20.96)"/><path class="ea55528d-bc48-4133-9a22-855ef956c6a0" d="M259.85,210.62c.58-.33,1-.06,1,.6a2.3,2.3,0,0,1-1,1.81c-.58.33-1,.06-1-.6A2.3,2.3,0,0,1,259.85,210.62Z" transform="translate(-18.27 -20.96)"/><path class="ea55528d-bc48-4133-9a22-855ef956c6a0" d="M268,203.59c.58-.34,1-.07,1,.6a2.3,2.3,0,0,1-1,1.81c-.57.33-1,.06-1-.61A2.3,2.3,0,0,1,268,203.59Z" transform="translate(-18.27 -20.96)"/><path class="ea55528d-bc48-4133-9a22-855ef956c6a0" d="M276.1,203.59c.58-.34,1-.07,1,.6a2.3,2.3,0,0,1-1,1.81c-.58.33-1,.06-1-.61A2.3,2.3,0,0,1,276.1,203.59Z" transform="translate(-18.27 -20.96)"/><path class="ea55528d-bc48-4133-9a22-855ef956c6a0" d="M284.22,184.82c.58-.33,1-.06,1,.61a2.3,2.3,0,0,1-1,1.8c-.57.34-1,.07-1-.6A2.32,2.32,0,0,1,284.22,184.82Z" transform="translate(-18.27 -20.96)"/><path class="ea55528d-bc48-4133-9a22-855ef956c6a0" d="M292.35,194.14c.57-.33,1-.07,1,.6a2.3,2.3,0,0,1-1,1.81c-.58.33-1.05.06-1.05-.6A2.3,2.3,0,0,1,292.35,194.14Z" transform="translate(-18.27 -20.96)"/><path class="ea55528d-bc48-4133-9a22-855ef956c6a0" d="M300.47,184.82c.58-.33,1-.06,1,.61a2.3,2.3,0,0,1-1,1.8c-.58.34-1,.07-1-.6A2.3,2.3,0,0,1,300.47,184.82Z" transform="translate(-18.27 -20.96)"/><path class="ea55528d-bc48-4133-9a22-855ef956c6a0" d="M308.6,180.13c.57-.33,1-.06,1,.61a2.3,2.3,0,0,1-1,1.8c-.58.34-1.05.07-1.05-.6A2.3,2.3,0,0,1,308.6,180.13Z" transform="translate(-18.27 -20.96)"/><path class="ea55528d-bc48-4133-9a22-855ef956c6a0" d="M316.72,180.13c.58-.33,1-.06,1,.61a2.3,2.3,0,0,1-1,1.8c-.58.34-1,.07-1-.6A2.3,2.3,0,0,1,316.72,180.13Z" transform="translate(-18.27 -20.96)"/><path class="ea55528d-bc48-4133-9a22-855ef956c6a0" d="M324.84,175.44c.58-.33,1.05-.06,1.05.61a2.29,2.29,0,0,1-1.05,1.8c-.57.34-1,.07-1-.6A2.32,2.32,0,0,1,324.84,175.44Z" transform="translate(-18.27 -20.96)"/><path class="ea55528d-bc48-4133-9a22-855ef956c6a0" d="M333,175.44c.57-.33,1-.06,1,.61a2.3,2.3,0,0,1-1,1.8c-.58.34-1.05.07-1.05-.6A2.3,2.3,0,0,1,333,175.44Z" transform="translate(-18.27 -20.96)"/><path class="ea55528d-bc48-4133-9a22-855ef956c6a0" d="M194.86,261.33h-.13a.25.25,0,0,1-.09-.34l8.18-14.1a.24.24,0,0,1,.17-.12l7.94-1.7,8.07-16.9a.26.26,0,0,1,.16-.13.23.23,0,0,1,.2,0l8,4.64,8-2.31,8.07-7,8.11-9.36a.2.2,0,0,1,.12-.08l8.07-2.33,8.08-7a.27.27,0,0,1,.17-.06h8l8-18.61a.28.28,0,0,1,.2-.15.24.24,0,0,1,.22.09l7.94,9.16,7.93-9.16a.13.13,0,0,1,.07-.06l8.15-4.7a.24.24,0,0,1,.12,0h8.06l8-4.64H333a.25.25,0,0,1,0,.5h-8.06l-8,4.64h-8.18l-8.06,4.65-8.09,9.35a.27.27,0,0,1-.37,0h0l-7.87-9.08-8,18.4a.25.25,0,0,1-.23.15h-8L260,212h-.1l-8,2.32-8.09,9.33-8.14,7.06-.09,0-8.12,2.35a.21.21,0,0,1-.19,0l-7.9-4.56-8,16.77a.21.21,0,0,1-.17.13l-8,1.7-8.13,14A.26.26,0,0,1,194.86,261.33Z" transform="translate(-18.27 -20.96)"/><g class="ed260938-1b61-4b2c-9af3-dd19d6d9dfd7"><path d="M194.86,259.87c.58-.33,1-.06,1,.6a2.3,2.3,0,0,1-1,1.81c-.58.33-1,.06-1-.6A2.3,2.3,0,0,1,194.86,259.87Z" transform="translate(-18.27 -20.96)"/><path d="M203,245.8c.58-.33,1.05-.06,1.05.6a2.3,2.3,0,0,1-1.05,1.81c-.57.33-1,.06-1-.6A2.3,2.3,0,0,1,203,245.8Z" transform="translate(-18.27 -20.96)"/><ellipse cx="211.12" cy="245.26" rx="1.48" ry="0.85" transform="translate(-125.11 284.5) rotate(-60)"/><path d="M219.23,227c.58-.34,1-.07,1,.6a2.3,2.3,0,0,1-1,1.81c-.58.33-1,.06-1-.61A2.3,2.3,0,0,1,219.23,227Z" transform="translate(-18.27 -20.96)"/><path d="M227.36,231.73c.58-.33,1-.06,1,.6a2.3,2.3,0,0,1-1,1.81c-.57.33-1,.06-1-.6A2.3,2.3,0,0,1,227.36,231.73Z" transform="translate(-18.27 -20.96)"/><path d="M235.48,229.38c.58-.33,1-.06,1,.61a2.3,2.3,0,0,1-1,1.8c-.58.34-1,.07-1-.6A2.3,2.3,0,0,1,235.48,229.38Z" transform="translate(-18.27 -20.96)"/><path d="M243.6,222.35c.58-.34,1.05-.07,1.05.6a2.3,2.3,0,0,1-1.05,1.81c-.57.33-1,.06-1-.6A2.3,2.3,0,0,1,243.6,222.35Z" transform="translate(-18.27 -20.96)"/><path d="M251.73,213c.57-.34,1-.07,1,.6a2.32,2.32,0,0,1-1,1.81c-.58.33-1,.06-1-.61A2.3,2.3,0,0,1,251.73,213Z" transform="translate(-18.27 -20.96)"/><path d="M259.85,210.62c.58-.33,1-.06,1,.6a2.3,2.3,0,0,1-1,1.81c-.58.33-1,.06-1-.6A2.3,2.3,0,0,1,259.85,210.62Z" transform="translate(-18.27 -20.96)"/><path d="M268,203.59c.58-.34,1-.07,1,.6a2.3,2.3,0,0,1-1,1.81c-.57.33-1,.06-1-.61A2.3,2.3,0,0,1,268,203.59Z" transform="translate(-18.27 -20.96)"/><path d="M276.1,203.59c.58-.34,1-.07,1,.6a2.3,2.3,0,0,1-1,1.81c-.58.33-1,.06-1-.61A2.3,2.3,0,0,1,276.1,203.59Z" transform="translate(-18.27 -20.96)"/><path d="M284.22,184.82c.58-.33,1-.06,1,.61a2.3,2.3,0,0,1-1,1.8c-.57.34-1,.07-1-.6A2.32,2.32,0,0,1,284.22,184.82Z" transform="translate(-18.27 -20.96)"/><path d="M292.35,194.14c.57-.33,1-.07,1,.6a2.3,2.3,0,0,1-1,1.81c-.58.33-1.05.06-1.05-.6A2.3,2.3,0,0,1,292.35,194.14Z" transform="translate(-18.27 -20.96)"/><path d="M300.47,184.82c.58-.33,1-.06,1,.61a2.3,2.3,0,0,1-1,1.8c-.58.34-1,.07-1-.6A2.3,2.3,0,0,1,300.47,184.82Z" transform="translate(-18.27 -20.96)"/><path d="M308.6,180.13c.57-.33,1-.06,1,.61a2.3,2.3,0,0,1-1,1.8c-.58.34-1.05.07-1.05-.6A2.3,2.3,0,0,1,308.6,180.13Z" transform="translate(-18.27 -20.96)"/><path d="M316.72,180.13c.58-.33,1-.06,1,.61a2.3,2.3,0,0,1-1,1.8c-.58.34-1,.07-1-.6A2.3,2.3,0,0,1,316.72,180.13Z" transform="translate(-18.27 -20.96)"/><path d="M324.84,175.44c.58-.33,1.05-.06,1.05.61a2.29,2.29,0,0,1-1.05,1.8c-.57.34-1,.07-1-.6A2.32,2.32,0,0,1,324.84,175.44Z" transform="translate(-18.27 -20.96)"/><path d="M333,175.44c.57-.33,1-.06,1,.61a2.3,2.3,0,0,1-1,1.8c-.58.34-1.05.07-1.05-.6A2.3,2.3,0,0,1,333,175.44Z" transform="translate(-18.27 -20.96)"/><path d="M194.86,261.33h-.13a.25.25,0,0,1-.09-.34l8.18-14.1a.24.24,0,0,1,.17-.12l7.94-1.7,8.07-16.9a.26.26,0,0,1,.16-.13.23.23,0,0,1,.2,0l8,4.64,8-2.31,8.07-7,8.11-9.36a.2.2,0,0,1,.12-.08l8.07-2.33,8.08-7a.27.27,0,0,1,.17-.06h8l8-18.61a.28.28,0,0,1,.2-.15.24.24,0,0,1,.22.09l7.94,9.16,7.93-9.16a.13.13,0,0,1,.07-.06l8.15-4.7a.24.24,0,0,1,.12,0h8.06l8-4.64H333a.25.25,0,0,1,0,.5h-8.06l-8,4.64h-8.18l-8.06,4.65-8.09,9.35a.27.27,0,0,1-.37,0h0l-7.87-9.08-8,18.4a.25.25,0,0,1-.23.15h-8L260,212h-.1l-8,2.32-8.09,9.33-8.14,7.06-.09,0-8.12,2.35a.21.21,0,0,1-.19,0l-7.9-4.56-8,16.77a.21.21,0,0,1-.17.13l-8,1.7-8.13,14A.26.26,0,0,1,194.86,261.33Z" transform="translate(-18.27 -20.96)"/></g><path class="b9204f65-7d38-4e2a-815e-d20fc9c9f7ec" d="M199.11,225.07,207,220.5c.4-.23.72-.07.72.37a1.54,1.54,0,0,1-.72,1.19l-7.87,4.57c-.39.23-.72.07-.72-.37A1.57,1.57,0,0,1,199.11,225.07Z" transform="translate(-18.27 -20.96)"/><path class="ea55528d-bc48-4133-9a22-855ef956c6a0" d="M194.86,227c.58-.34,1-.07,1,.6a2.3,2.3,0,0,1-1,1.81c-.58.33-1.05.06-1.05-.6A2.3,2.3,0,0,1,194.86,227Z" transform="translate(-18.27 -20.96)"/><path class="baeb4818-0a5a-46f1-b937-870822096a0d" d="M194.86,227c.58-.34,1-.07,1,.6a2.3,2.3,0,0,1-1,1.81c-.58.33-1.05.06-1.05-.6A2.3,2.3,0,0,1,194.86,227Z" transform="translate(-18.27 -20.96)"/><path class="b9204f65-7d38-4e2a-815e-d20fc9c9f7ec" d="M199.11,229.74l7.87-4.56c.4-.23.72-.07.72.36a1.53,1.53,0,0,1-.72,1.2l-7.87,4.57c-.39.23-.72.06-.72-.37A1.58,1.58,0,0,1,199.11,229.74Z" transform="translate(-18.27 -20.96)"/><path class="ea55528d-bc48-4133-9a22-855ef956c6a0" d="M194.86,231.73c.58-.33,1-.07,1,.6a2.3,2.3,0,0,1-1,1.81c-.58.33-1.05.06-1.05-.6A2.3,2.3,0,0,1,194.86,231.73Z" transform="translate(-18.27 -20.96)"/><path class="ea55528d-bc48-4133-9a22-855ef956c6a0" d="M194.86,294.23a.28.28,0,0,1-.17-.07.25.25,0,0,1,0-.35h0l4.12-4.24,4-.51,4.09-5.28,4.09.56,4-3.59,4.06-2.43,4.13-5.73,4.11,1.29,4-3.53a.24.24,0,0,1,.35,0,.22.22,0,0,1,0,.32l0,0-4.16,3.72-4-1.27-4,5.55-4.06,2.43-4.11,3.72-4-.55-4,5.21L199,290l-4,4.11A.24.24,0,0,1,194.86,294.23Z" transform="translate(-18.27 -20.96)"/><path class="b45a9a20-a30e-41ce-bf69-cd8f51d5e417" d="M196.47,280.51a.43.43,0,0,1,.1-.09l.11-.08a1.09,1.09,0,0,1,.61-.18.72.72,0,0,1,.49.18,1.19,1.19,0,0,1,.32.51,2.49,2.49,0,0,1,.12.81,3.65,3.65,0,0,1-.12.93,3.94,3.94,0,0,1-.32.89,3.34,3.34,0,0,1-.49.75,2.34,2.34,0,0,1-.61.52,1.25,1.25,0,0,1-.62.19.76.76,0,0,1-.48-.19,1.16,1.16,0,0,1-.33-.51,2.78,2.78,0,0,1-.11-.81,4.34,4.34,0,0,1,0-.51,3.86,3.86,0,0,1,.1-.49,1.53,1.53,0,0,1,.14-.46l.15-.44,1.08-3.08a1,1,0,0,0,.07-.15.24.24,0,0,1,.12-.14l.34-.19a0,0,0,0,1,.07,0h0v.25Zm-.77,2.6a1.59,1.59,0,0,0,.07.48.79.79,0,0,0,.2.33.48.48,0,0,0,.3.13.73.73,0,0,0,.41-.12,2,2,0,0,0,.41-.35,2.41,2.41,0,0,0,.3-.48,2.56,2.56,0,0,0,.26-1.12,2,2,0,0,0-.06-.48.79.79,0,0,0-.2-.33.48.48,0,0,0-.3-.13.85.85,0,0,0-.41.12,1.69,1.69,0,0,0-.41.35,2.22,2.22,0,0,0-.3.49,2.79,2.79,0,0,0-.2.55,2.6,2.6,0,0,0-.07.56Z" transform="translate(-18.27 -20.96)"/><path class="b45a9a20-a30e-41ce-bf69-cd8f51d5e417" d="M199.23,281.64a1.83,1.83,0,0,0,.08.25.31.31,0,0,0,.16.16.45.45,0,0,0,.28,0,1.78,1.78,0,0,0,.81-.46,1.82,1.82,0,0,0,.29-.38,2,2,0,0,0,.2-.48,2.1,2.1,0,0,0,.07-.56,1.2,1.2,0,0,0-.07-.46.38.38,0,0,0-.19-.22.48.48,0,0,0-.29,0,1.46,1.46,0,0,0-.36.16l-.49.28a.09.09,0,0,1-.12,0,.17.17,0,0,1,0-.14v-.33a.49.49,0,0,1,0-.17l.06-.16,1.07-2.4-1.71,1a.07.07,0,0,1-.1,0h0a.28.28,0,0,1,0-.14v-.33a.35.35,0,0,1,0-.2.26.26,0,0,1,.11-.14l2.34-1.35h.11a.19.19,0,0,1,0,.15V276a.54.54,0,0,1,0,.18.64.64,0,0,1-.08.19l-1,2.36a1.22,1.22,0,0,1,.55-.17.59.59,0,0,1,.42.13.82.82,0,0,1,.27.43,2.14,2.14,0,0,1,.1.71,3.66,3.66,0,0,1-.44,1.72,3.43,3.43,0,0,1-.47.66,2.5,2.5,0,0,1-.57.46,1.7,1.7,0,0,1-.69.26.68.68,0,0,1-.75-.46,1.44,1.44,0,0,1-.1-.54.43.43,0,0,1,0-.16.31.31,0,0,1,.09-.11l.27-.16h.11A.21.21,0,0,1,199.23,281.64Z" transform="translate(-18.27 -20.96)"/><path class="b45a9a20-a30e-41ce-bf69-cd8f51d5e417" d="M202.77,279.6a.73.73,0,0,0,.08.25.31.31,0,0,0,.16.16.45.45,0,0,0,.28,0,1.78,1.78,0,0,0,.81-.46,1.58,1.58,0,0,0,.29-.39,2.76,2.76,0,0,0,.2-.47,2.1,2.1,0,0,0,.07-.56,1.2,1.2,0,0,0-.07-.46.45.45,0,0,0-.19-.22.48.48,0,0,0-.29,0,1.94,1.94,0,0,0-.36.15l-.5.29a.08.08,0,0,1-.11,0,.17.17,0,0,1,0-.14v-.33a.49.49,0,0,1,0-.17l.06-.16,1.07-2.4-1.71,1a.09.09,0,0,1-.12,0,.17.17,0,0,1,0-.14v-.33a.67.67,0,0,1,0-.2.24.24,0,0,1,.12-.14l2.34-1.36a.08.08,0,0,1,.11,0,.21.21,0,0,1,.05.15V274a.54.54,0,0,1,0,.18c0,.06-.05.12-.08.19l-1,2.36a1.28,1.28,0,0,1,.54-.18.6.6,0,0,1,.43.14,1,1,0,0,1,.27.42,2.5,2.5,0,0,1,.1.72,3.5,3.5,0,0,1-.12.91,3.71,3.71,0,0,1-.32.8,3,3,0,0,1-.47.66,2.85,2.85,0,0,1-.57.47,1.86,1.86,0,0,1-.69.26.8.8,0,0,1-.48-.1.9.9,0,0,1-.28-.36,1.65,1.65,0,0,1-.09-.54.43.43,0,0,1,0-.16.27.27,0,0,1,.09-.12l.27-.15a.08.08,0,0,1,.11,0A.31.31,0,0,1,202.77,279.6Z" transform="translate(-18.27 -20.96)"/><path class="b9204f65-7d38-4e2a-815e-d20fc9c9f7ec" d="M195.59,297.46l35.11-20.35c.39-.23.72-.06.72.37a1.6,1.6,0,0,1-.72,1.2L195.59,299c-.39.23-.72.07-.72-.37A1.57,1.57,0,0,1,195.59,297.46Z" transform="translate(-18.27 -20.96)"/><path class="b9204f65-7d38-4e2a-815e-d20fc9c9f7ec" d="M195.59,274l7.87-4.56c.4-.23.72-.07.72.36a1.55,1.55,0,0,1-.72,1.2l-7.87,4.56c-.39.23-.72.07-.72-.36A1.6,1.6,0,0,1,195.59,274Z" transform="translate(-18.27 -20.96)"/><path class="ea55528d-bc48-4133-9a22-855ef956c6a0" d="M194.86,322.35a.21.21,0,0,1-.17-.08.24.24,0,0,1,0-.34h0l4.12-4.24,4.08-.51,4.1-3.59,4-1.08,4.13-8.21,4.13,2,4-3.52h.07l4-.75,4-6.91a.24.24,0,0,1,.33-.12.25.25,0,0,1,.13.33l0,0-4.11,7.11-4.11.78-4.14,3.64-4-2-4,8L207.23,314l-4.08,3.59-4.05.52-4,4.11A.25.25,0,0,1,194.86,322.35Z" transform="translate(-18.27 -20.96)"/><g class="ed260938-1b61-4b2c-9af3-dd19d6d9dfd7"><path d="M194.86,322.35a.21.21,0,0,1-.17-.08.24.24,0,0,1,0-.34h0l4.12-4.24,4.08-.51,4.1-3.59,4-1.08,4.13-8.21,4.13,2,4-3.52h.07l4-.75,4-6.91a.24.24,0,0,1,.33-.12.25.25,0,0,1,.13.33l0,0-4.11,7.11-4.11.78-4.14,3.64-4-2-4,8L207.23,314l-4.08,3.59-4.05.52-4,4.11A.25.25,0,0,1,194.86,322.35Z" transform="translate(-18.27 -20.96)"/></g><path class="b45a9a20-a30e-41ce-bf69-cd8f51d5e417" d="M196.93,312.38a.74.74,0,0,1,0,.21.25.25,0,0,1-.12.13l-.24.14a.08.08,0,0,1-.11,0,.19.19,0,0,1,0-.15v-5l-1,1.68q-.06.11-.12.12a.08.08,0,0,1-.11,0l-.14-.2a.22.22,0,0,1,0-.16.36.36,0,0,1,.06-.2l1.27-2.24a.4.4,0,0,1,.1-.12l.09-.06.24-.14a.09.09,0,0,1,.12,0,.17.17,0,0,1,0,.14Z" transform="translate(-18.27 -20.96)"/><path class="b45a9a20-a30e-41ce-bf69-cd8f51d5e417" d="M199.53,307.76a4.06,4.06,0,0,0,.27-.65,2.9,2.9,0,0,0,.09-.72,1.06,1.06,0,0,0-.19-.71c-.12-.14-.31-.14-.58,0a1.27,1.27,0,0,0-.35.3,2,2,0,0,0-.25.39,3.53,3.53,0,0,0-.15.46,4,4,0,0,0-.09.48.6.6,0,0,1-.06.19.52.52,0,0,1-.1.11l-.27.15h-.09a.13.13,0,0,1,0-.12,3.86,3.86,0,0,1,.1-.75,3.69,3.69,0,0,1,.27-.79,4.48,4.48,0,0,1,.44-.72,2,2,0,0,1,.59-.52,1.17,1.17,0,0,1,.58-.18.64.64,0,0,1,.41.18,1,1,0,0,1,.26.48,3.36,3.36,0,0,1,.08.71,5,5,0,0,1,0,.55,4.54,4.54,0,0,1-.09.51c-.05.17-.11.34-.18.52s-.16.36-.26.56l-1.33,2.67,1.82-1.05a.08.08,0,0,1,.11,0v.47a.34.34,0,0,1,0,.2.26.26,0,0,1-.11.14l-2.56,1.48a.08.08,0,0,1-.11,0,.24.24,0,0,1-.05-.14v-.33a.61.61,0,0,1,0-.19,2.44,2.44,0,0,1,.1-.24Z" transform="translate(-18.27 -20.96)"/><path class="b45a9a20-a30e-41ce-bf69-cd8f51d5e417" d="M204.23,304.45V306a6.2,6.2,0,0,1-.09,1.05,5,5,0,0,1-.28,1,3.37,3.37,0,0,1-.47.8,2.34,2.34,0,0,1-.67.58,1.26,1.26,0,0,1-.68.2.66.66,0,0,1-.46-.26,1.53,1.53,0,0,1-.28-.64,4.92,4.92,0,0,1-.1-.94V306.2a7.46,7.46,0,0,1,.1-1.06,4.38,4.38,0,0,1,.28-1,3.77,3.77,0,0,1,.46-.8,2.39,2.39,0,0,1,.68-.59,1.14,1.14,0,0,1,.67-.19.67.67,0,0,1,.47.27,1.67,1.67,0,0,1,.28.64A4,4,0,0,1,204.23,304.45Zm-2.47,3a1.87,1.87,0,0,0,.25,1.13c.16.19.4.19.71,0a1.7,1.7,0,0,0,.7-.82,3.7,3.7,0,0,0,.26-1.43v-1.54a1.89,1.89,0,0,0-.26-1.14c-.16-.19-.39-.19-.7,0a1.72,1.72,0,0,0-.71.82,3.88,3.88,0,0,0-.25,1.43v1.55Z" transform="translate(-18.27 -20.96)"/><path class="b9204f65-7d38-4e2a-815e-d20fc9c9f7ec" d="M195.59,325.57l35.11-20.34c.39-.23.72-.07.72.37a1.56,1.56,0,0,1-.72,1.19l-35.11,20.35c-.39.23-.72.06-.72-.37A1.6,1.6,0,0,1,195.59,325.57Z" transform="translate(-18.27 -20.96)"/><path class="b9204f65-7d38-4e2a-815e-d20fc9c9f7ec" d="M195.59,302.11l7.87-4.57c.4-.23.72-.06.72.37a1.55,1.55,0,0,1-.72,1.2l-7.87,4.56c-.39.23-.72.07-.72-.36A1.55,1.55,0,0,1,195.59,302.11Z" transform="translate(-18.27 -20.96)"/><path class="ea55528d-bc48-4133-9a22-855ef956c6a0" d="M243.6,266a.26.26,0,0,1-.19-.1.24.24,0,0,1,0-.34h0l4.06-3.24,4.09-4.67,4.15-.61,4-.89,4.11-4.84,4,.71,4-6.41,4.12.06,4-3.55a.25.25,0,0,1,.35,0h0a.24.24,0,0,1,0,.35l-4.13,3.69-4-.07-4.07,6.46-4.09-.72-4,4.75-4.15.94-4,.58-4,4.56-4.1,3.35A.22.22,0,0,1,243.6,266Z" transform="translate(-18.27 -20.96)"/><path class="b45a9a20-a30e-41ce-bf69-cd8f51d5e417" d="M245.21,252.31l.1-.09.11-.08A1.08,1.08,0,0,1,246,252a.74.74,0,0,1,.49.18,1.19,1.19,0,0,1,.32.51,2.78,2.78,0,0,1,.11.81,4.15,4.15,0,0,1-.11.93,5.55,5.55,0,0,1-.32.89,3.72,3.72,0,0,1-.49.75,2.23,2.23,0,0,1-.62.52,1.19,1.19,0,0,1-.61.19.81.81,0,0,1-.49-.19A1.2,1.2,0,0,1,244,256a2.25,2.25,0,0,1-.12-.81,4.34,4.34,0,0,1,0-.51,2,2,0,0,1,.1-.49l.14-.47c0-.15.11-.29.16-.43l1.08-3.08.06-.15a.33.33,0,0,1,.12-.14l.34-.19H246a.24.24,0,0,1,0,.12.11.11,0,0,1,0,.08,0,0,0,0,1,0,0Zm-.76,2.6a1.55,1.55,0,0,0,.07.48.73.73,0,0,0,.19.33.44.44,0,0,0,.31.13.72.72,0,0,0,.4-.12,1.69,1.69,0,0,0,.41-.35,3.12,3.12,0,0,0,.31-.49,3.58,3.58,0,0,0,.19-.55,2.6,2.6,0,0,0,.07-.56,1.59,1.59,0,0,0-.07-.48.84.84,0,0,0-.19-.33.51.51,0,0,0-.31-.13,1,1,0,0,0-.41.12,1.48,1.48,0,0,0-.4.35,1.93,1.93,0,0,0-.31.49,2.76,2.76,0,0,0-.19.55,2.1,2.1,0,0,0-.07.56Z" transform="translate(-18.27 -20.96)"/><path class="b45a9a20-a30e-41ce-bf69-cd8f51d5e417" d="M249.33,250.84a3.81,3.81,0,0,0,.27-.66,3,3,0,0,0,.09-.72,1.08,1.08,0,0,0-.19-.7c-.12-.15-.32-.14-.58,0a1.7,1.7,0,0,0-.36.29,2.65,2.65,0,0,0-.24.4,1.7,1.7,0,0,0-.15.45,2.73,2.73,0,0,1-.1.48.6.6,0,0,1-.06.19.31.31,0,0,1-.09.11l-.27.16a.09.09,0,0,1-.1,0,.24.24,0,0,1,0-.12,3.07,3.07,0,0,1,.1-.74,3.69,3.69,0,0,1,.27-.79,3.31,3.31,0,0,1,.44-.72,2.14,2.14,0,0,1,.59-.53,1.06,1.06,0,0,1,.57-.17.6.6,0,0,1,.42.18,1,1,0,0,1,.25.47,2.9,2.9,0,0,1,.09.72,4.86,4.86,0,0,1,0,.54,3.06,3.06,0,0,1-.1.51,3.16,3.16,0,0,1-.17.52c-.08.18-.16.36-.26.56l-1.33,2.67,1.82-1.05a.08.08,0,0,1,.11,0,.21.21,0,0,1,.05.15v.33a.46.46,0,0,1-.05.2.49.49,0,0,1-.11.14l-2.56,1.47h-.12a.2.2,0,0,1,0-.15v-.33a.61.61,0,0,1,0-.19,1.6,1.6,0,0,1,.1-.23Z" transform="translate(-18.27 -20.96)"/><path class="b45a9a20-a30e-41ce-bf69-cd8f51d5e417" d="M253.37,245.47a.08.08,0,0,1,.11,0,.17.17,0,0,1,.05.15v.78l-1.32,6a1.46,1.46,0,0,1-.07.19.24.24,0,0,1-.11.13l-.27.16a.09.09,0,0,1-.1,0,.15.15,0,0,1,0-.13h0v-.08l1.32-6-2,1.13a.11.11,0,0,1-.11,0,.21.21,0,0,1-.05-.15v-.33a.46.46,0,0,1,.05-.2A.3.3,0,0,1,251,247Z" transform="translate(-18.27 -20.96)"/><path class="b9204f65-7d38-4e2a-815e-d20fc9c9f7ec" d="M244.34,269.26l35.1-20.35c.4-.23.72-.06.72.37a1.55,1.55,0,0,1-.72,1.2l-35.1,20.34c-.4.23-.72.06-.72-.37A1.54,1.54,0,0,1,244.34,269.26Z" transform="translate(-18.27 -20.96)"/><path class="b9204f65-7d38-4e2a-815e-d20fc9c9f7ec" d="M244.34,245.79l7.86-4.56c.4-.23.73-.07.73.36a1.56,1.56,0,0,1-.73,1.2l-7.86,4.56c-.4.23-.72.07-.72-.36A1.55,1.55,0,0,1,244.34,245.79Z" transform="translate(-18.27 -20.96)"/><path class="ea55528d-bc48-4133-9a22-855ef956c6a0" d="M243.6,294.14h-.13a.27.27,0,0,1-.08-.35l4.15-6.8,4.18.77,3.93-1.08,4.06-4.95,4-1,4.1-7.32,4.2,1.22,3.94-.75,4-3.56a.25.25,0,1,1,.38.33l-.05,0-4.11,3.66h-.06l-4.14.78L268.1,274l-4,7.16-4.09,1L256,287.11h-.07l-4.12,1.13h-.06l-3.89-.72-4,6.51A.26.26,0,0,1,243.6,294.14Z" transform="translate(-18.27 -20.96)"/><g class="ed260938-1b61-4b2c-9af3-dd19d6d9dfd7"><path d="M243.6,294.14h-.13a.27.27,0,0,1-.08-.35l4.15-6.8,4.18.77,3.93-1.08,4.06-4.95,4-1,4.1-7.32,4.2,1.22,3.94-.75,4-3.56a.25.25,0,1,1,.38.33l-.05,0-4.11,3.66h-.06l-4.14.78L268.1,274l-4,7.16-4.09,1L256,287.11h-.07l-4.12,1.13h-.06l-3.89-.72-4,6.51A.26.26,0,0,1,243.6,294.14Z" transform="translate(-18.27 -20.96)"/></g><path class="b45a9a20-a30e-41ce-bf69-cd8f51d5e417" d="M245.48,282.35l-.08.06h-.08a1.32,1.32,0,0,1-.55.18.76.76,0,0,1-.48-.15A1.09,1.09,0,0,1,244,282a2.23,2.23,0,0,1-.13-.85,3.65,3.65,0,0,1,.12-.93,5.33,5.33,0,0,1,.32-.87,3.47,3.47,0,0,1,.48-.72,2.1,2.1,0,0,1,.57-.5,1.26,1.26,0,0,1,.62-.2.7.7,0,0,1,.47.19,1.15,1.15,0,0,1,.3.51,2.7,2.7,0,0,1,.1.8,4,4,0,0,1,0,.49,2.59,2.59,0,0,1-.12.52,4.32,4.32,0,0,1-.16.51c-.06.17-.1.32-.15.45l-1.08,3.08-.07.15a.24.24,0,0,1-.12.14l-.34.2a.06.06,0,0,1-.08,0,.29.29,0,0,1,0-.13v-.13Zm.77-2.59a1.61,1.61,0,0,0-.07-.49A.71.71,0,0,0,246,279a.36.36,0,0,0-.29-.11.87.87,0,0,0-.38.11,1.66,1.66,0,0,0-.38.32,2.16,2.16,0,0,0-.29.45,2.33,2.33,0,0,0-.25,1.1,2.07,2.07,0,0,0,.06.5.77.77,0,0,0,.19.31.44.44,0,0,0,.29.11.73.73,0,0,0,.38-.11,1.66,1.66,0,0,0,.38-.32,2.66,2.66,0,0,0,.29-.45,2.58,2.58,0,0,0,.19-.53A2.14,2.14,0,0,0,246.25,279.76Z" transform="translate(-18.27 -20.96)"/><path class="b45a9a20-a30e-41ce-bf69-cd8f51d5e417" d="M247.79,281.66a1.06,1.06,0,0,0,.09.25.37.37,0,0,0,.16.17.45.45,0,0,0,.28,0,1.78,1.78,0,0,0,.81-.46,2.12,2.12,0,0,0,.29-.38,2.55,2.55,0,0,0,.2-.48,2.1,2.1,0,0,0,.07-.56,1.2,1.2,0,0,0-.07-.46.45.45,0,0,0-.19-.22.48.48,0,0,0-.29,0,1.46,1.46,0,0,0-.36.16l-.5.28a.08.08,0,0,1-.11,0,.17.17,0,0,1,0-.14v-.33a.49.49,0,0,1,0-.17l.07-.16,1.07-2.4-1.72,1a.08.08,0,0,1-.11,0,.27.27,0,0,1,0-.15v-.33a.46.46,0,0,1,0-.2.3.3,0,0,1,.11-.14l2.35-1.35a.08.08,0,0,1,.11,0,.24.24,0,0,1,0,.14v.33a.54.54,0,0,1,0,.18,1.08,1.08,0,0,1-.08.19L249,278.79a1.14,1.14,0,0,1,.54-.17.59.59,0,0,1,.42.13.9.9,0,0,1,.28.43,2.44,2.44,0,0,1,.1.71,3.5,3.5,0,0,1-.12.91,4.71,4.71,0,0,1-.32.81,3.43,3.43,0,0,1-.47.66,2.5,2.5,0,0,1-.57.46,1.86,1.86,0,0,1-.69.26.73.73,0,0,1-.48-.1.9.9,0,0,1-.28-.36,1.6,1.6,0,0,1-.09-.53.49.49,0,0,1,0-.17.27.27,0,0,1,.1-.11l.27-.16h.1A.12.12,0,0,1,247.79,281.66Z" transform="translate(-18.27 -20.96)"/><path class="b9204f65-7d38-4e2a-815e-d20fc9c9f7ec" d="M244.34,297.37,279.44,277c.4-.23.72-.07.72.37a1.54,1.54,0,0,1-.72,1.19l-35.1,20.35c-.4.23-.72.06-.72-.37A1.54,1.54,0,0,1,244.34,297.37Z" transform="translate(-18.27 -20.96)"/><path class="b9204f65-7d38-4e2a-815e-d20fc9c9f7ec" d="M244.34,273.91l7.86-4.57c.4-.23.73-.06.73.37a1.56,1.56,0,0,1-.73,1.2l-7.86,4.56c-.4.23-.72.07-.72-.36A1.53,1.53,0,0,1,244.34,273.91Z" transform="translate(-18.27 -20.96)"/><path class="ea55528d-bc48-4133-9a22-855ef956c6a0" d="M296.41,220.38A4.58,4.58,0,0,1,301,220l-4.63,12.48Z" transform="translate(-18.27 -20.96)"/><path class="ea55528d-bc48-4133-9a22-855ef956c6a0" d="M291.78,225.38a13.72,13.72,0,0,1,4.63-5v12.14Z" transform="translate(-18.27 -20.96)"/><path class="ea55528d-bc48-4133-9a22-855ef956c6a0" d="M288.91,233.1a24.24,24.24,0,0,1,2.87-7.72l4.63,7.14Z" transform="translate(-18.27 -20.96)"/><path class="baeb4818-0a5a-46f1-b937-870822096a0d" d="M291.78,225.38a24.24,24.24,0,0,0-2.87,7.72l7.5-.58V220.38A13.72,13.72,0,0,0,291.78,225.38Z" transform="translate(-18.27 -20.96)"/><path class="ea55528d-bc48-4133-9a22-855ef956c6a0" d="M301,220a6.49,6.49,0,0,1,2.87,4.4l-7.5,8.08Z" transform="translate(-18.27 -20.96)"/><path class="ea55528d-bc48-4133-9a22-855ef956c6a0" d="M288.91,240.6a15,15,0,0,1-.39-3.53,21.52,21.52,0,0,1,.39-4l7.5-.58Z" transform="translate(-18.27 -20.96)"/><path class="ea55528d-bc48-4133-9a22-855ef956c6a0" d="M303.91,231.94a24.24,24.24,0,0,1-2.87,7.72l-4.63-7.14Z" transform="translate(-18.27 -20.96)"/><path class="ea55528d-bc48-4133-9a22-855ef956c6a0" d="M296.41,244.66a4.56,4.56,0,0,1-4.63.34l4.63-12.48Z" transform="translate(-18.27 -20.96)"/><path class="ea55528d-bc48-4133-9a22-855ef956c6a0" d="M288.91,240.6l7.5-8.08L291.78,245A6.49,6.49,0,0,1,288.91,240.6Z" transform="translate(-18.27 -20.96)"/><path class="ea55528d-bc48-4133-9a22-855ef956c6a0" d="M303.91,224.44a15.52,15.52,0,0,1,.38,3.53,21.51,21.51,0,0,1-.38,4l-7.5.58Z" transform="translate(-18.27 -20.96)"/><path class="ea55528d-bc48-4133-9a22-855ef956c6a0" d="M301,239.66a13.72,13.72,0,0,1-4.63,5V232.52Z" transform="translate(-18.27 -20.96)"/><path class="b45a9a20-a30e-41ce-bf69-cd8f51d5e417" d="M292.48,250.85l7.86-4.56c.4-.23.72-.07.72.36a1.55,1.55,0,0,1-.72,1.2l-7.86,4.56c-.4.23-.72.07-.72-.36A1.55,1.55,0,0,1,292.48,250.85Z" transform="translate(-18.27 -20.96)"/><path class="b9204f65-7d38-4e2a-815e-d20fc9c9f7ec" d="M290.74,256.56,302.08,250c.4-.23.72-.07.72.37a1.54,1.54,0,0,1-.72,1.19l-11.34,6.58c-.4.23-.72.07-.72-.36A1.52,1.52,0,0,1,290.74,256.56Z" transform="translate(-18.27 -20.96)"/><path class="b9204f65-7d38-4e2a-815e-d20fc9c9f7ec" d="M290.74,261.26l11.34-6.58c.4-.23.72-.06.72.37a1.54,1.54,0,0,1-.72,1.19l-11.34,6.58c-.4.23-.72.07-.72-.36A1.53,1.53,0,0,1,290.74,261.26Z" transform="translate(-18.27 -20.96)"/><path class="b9204f65-7d38-4e2a-815e-d20fc9c9f7ec" d="M290.74,266l11.34-6.58c.4-.23.72-.06.72.37a1.55,1.55,0,0,1-.72,1.2l-11.34,6.57c-.4.23-.72.07-.72-.36A1.55,1.55,0,0,1,290.74,266Z" transform="translate(-18.27 -20.96)"/><path class="ea55528d-bc48-4133-9a22-855ef956c6a0" d="M324.84,203.9a4.56,4.56,0,0,1,4.63-.34L324.84,216Z" transform="translate(-18.27 -20.96)"/><path class="ea55528d-bc48-4133-9a22-855ef956c6a0" d="M320.21,208.9a13.8,13.8,0,0,1,4.63-5V216Z" transform="translate(-18.27 -20.96)"/><path class="ea55528d-bc48-4133-9a22-855ef956c6a0" d="M317.35,216.62a24.46,24.46,0,0,1,2.86-7.72l4.63,7.14Z" transform="translate(-18.27 -20.96)"/><path class="ea55528d-bc48-4133-9a22-855ef956c6a0" d="M329.47,203.56a6.49,6.49,0,0,1,2.87,4.4l-7.5,8.08Z" transform="translate(-18.27 -20.96)"/><path class="ea55528d-bc48-4133-9a22-855ef956c6a0" d="M317.35,224.12a15,15,0,0,1-.39-3.53,21.52,21.52,0,0,1,.39-4l7.49-.58Z" transform="translate(-18.27 -20.96)"/><path class="ea55528d-bc48-4133-9a22-855ef956c6a0" d="M332.34,215.46a24.24,24.24,0,0,1-2.87,7.72L324.84,216Z" transform="translate(-18.27 -20.96)"/><path class="ea55528d-bc48-4133-9a22-855ef956c6a0" d="M324.84,228.18a4.61,4.61,0,0,1-4.63.35L324.84,216Z" transform="translate(-18.27 -20.96)"/><path class="ea55528d-bc48-4133-9a22-855ef956c6a0" d="M317.35,224.12l7.49-8.08-4.63,12.49A6.5,6.5,0,0,1,317.35,224.12Z" transform="translate(-18.27 -20.96)"/><path class="baeb4818-0a5a-46f1-b937-870822096a0d" d="M320.21,208.9a24.46,24.46,0,0,0-2.86,7.72,21.52,21.52,0,0,0-.39,4,15,15,0,0,0,.39,3.53,6.5,6.5,0,0,0,2.86,4.41L324.84,216V203.9A13.8,13.8,0,0,0,320.21,208.9Z" transform="translate(-18.27 -20.96)"/><path class="ea55528d-bc48-4133-9a22-855ef956c6a0" d="M332.34,208a15,15,0,0,1,.39,3.53,21.52,21.52,0,0,1-.39,4l-7.5.58Z" transform="translate(-18.27 -20.96)"/><path class="ea55528d-bc48-4133-9a22-855ef956c6a0" d="M329.47,223.18a13.72,13.72,0,0,1-4.63,5V216Z" transform="translate(-18.27 -20.96)"/><path class="b45a9a20-a30e-41ce-bf69-cd8f51d5e417" d="M320.91,234.43l7.87-4.56c.4-.23.72-.07.72.36a1.53,1.53,0,0,1-.72,1.2L320.91,236c-.4.23-.72.06-.72-.37A1.55,1.55,0,0,1,320.91,234.43Z" transform="translate(-18.27 -20.96)"/><path class="b9204f65-7d38-4e2a-815e-d20fc9c9f7ec" d="M319.18,240.14l11.33-6.58c.4-.23.72-.06.72.37a1.55,1.55,0,0,1-.72,1.2l-11.33,6.57c-.4.23-.73.07-.73-.36A1.56,1.56,0,0,1,319.18,240.14Z" transform="translate(-18.27 -20.96)"/><path class="b9204f65-7d38-4e2a-815e-d20fc9c9f7ec" d="M319.18,244.84l11.33-6.57c.4-.23.72-.07.72.36a1.55,1.55,0,0,1-.72,1.2l-11.33,6.57c-.4.24-.73.07-.73-.36A1.56,1.56,0,0,1,319.18,244.84Z" transform="translate(-18.27 -20.96)"/><path class="b9204f65-7d38-4e2a-815e-d20fc9c9f7ec" d="M319.18,249.54,330.51,243c.4-.23.72-.07.72.36a1.55,1.55,0,0,1-.72,1.2l-11.33,6.58c-.4.23-.73.06-.73-.37A1.56,1.56,0,0,1,319.18,249.54Z" transform="translate(-18.27 -20.96)"/></g></g><g id="e57f44a9-251f-4081-87a6-cce6b092b3e5" data-name="freepik--magnifying-glass--inject-2"><g id="a45c2b03-f1a2-4d7e-81af-7fad91ed16b3" data-name="freepik--Glass--inject-2"><path class="ea55528d-bc48-4133-9a22-855ef956c6a0" d="M324.69,366.68A13.37,13.37,0,0,0,319,356c-1.62-1-3.11-1.15-4.22-.58h0c-6.69,3.36-53.7,33.51-56.71,35h0a2.13,2.13,0,0,0-1,1.94,6.71,6.71,0,0,0,2.86,5.37,2.12,2.12,0,0,0,2.15.28h0c4.76-2.62,51.17-22.4,60.65-27.48h0C323.91,369.93,324.63,368.6,324.69,366.68Z" transform="translate(-18.27 -20.96)"/><path class="bebba934-9665-40b1-8c67-cf467a3e917a" d="M322.84,360.18A12,12,0,0,0,319,356c-1.61-1-3.1-1.15-4.2-.59l-.14.07c-6.11,3.13-41.1,25.45-52.87,32.71h-.08l-.48.3-.14.09-.27.16-.32.19h0c-1.24.76-2.09,1.25-2.41,1.41h0a1.44,1.44,0,0,0-.27.22,2.31,2.31,0,0,0-.68,1.72c0,.22,0,.45,0,.67v.27a.85.85,0,0,0,.08.41l.09.33a1.14,1.14,0,0,0,.13.38,2.47,2.47,0,0,0,.1.29h0Z" transform="translate(-18.27 -20.96)"/><path class="ea55528d-bc48-4133-9a22-855ef956c6a0" d="M259.94,397.75a6.67,6.67,0,0,1-2.85-5.35c.06-1.93,1.44-2.67,3.09-1.65A6.74,6.74,0,0,1,263,396.1C263,398,261.58,398.77,259.94,397.75Z" transform="translate(-18.27 -20.96)"/><path class="ef6e1ff8-2614-4cf1-b964-bf1ff4124ea4" d="M245.89,399.05a5.17,5.17,0,0,0,2.19,4.11,1.67,1.67,0,0,0,1.64.22h0l11.38-6.05h0a1.64,1.64,0,0,0,.72-1.48,5.17,5.17,0,0,0-2.19-4.11,1.65,1.65,0,0,0-1.64-.21h0l-11.37,6.05h0A1.66,1.66,0,0,0,245.89,399.05Z" transform="translate(-18.27 -20.96)"/><path class="f15b58cc-07b1-415d-86a7-79acc58bc889" d="M246.63,397.56a1.65,1.65,0,0,0-.74,1.49,4.37,4.37,0,0,0,.34,1.75L260.9,393a4.45,4.45,0,0,0-1.26-1.26,1.65,1.65,0,0,0-1.64-.21l-11.37,6.05Z" transform="translate(-18.27 -20.96)"/><path class="ea55528d-bc48-4133-9a22-855ef956c6a0" d="M260.48,409.14c0-7.29-4.82-14.57-14.45-20.13-19.26-11.12-50.49-11.12-69.75,0-9.63,5.56-14.45,12.84-14.45,20.13h0v13.43c0,7.28,4.82,14.57,14.45,20.13,19.26,11.12,50.49,11.12,69.75,0,9.63-5.56,14.45-12.85,14.45-20.13Zm-81.81-16c8.6-5,20.14-7.7,32.49-7.7s23.89,2.73,32.49,7.7c7.78,4.49,12.06,10.17,12.06,16s-4.28,11.52-12.06,16c-8.6,5-20.14,7.7-32.49,7.7s-23.89-2.74-32.49-7.7c-7.78-4.49-12.07-10.18-12.07-16s4.29-11.51,12.07-16Z" transform="translate(-18.27 -20.96)"/><path class="b841185a-dfa9-43f1-9638-c6f52966830c" d="M176.28,429.28c19.26,11.12,50.49,11.12,69.75,0s19.26-29.15,0-40.27-50.49-11.12-69.75,0S157,418.16,176.28,429.28Zm-9.68-20.14c0-5.83,4.28-11.51,12.06-16,8.6-5,20.14-7.7,32.49-7.7s23.89,2.73,32.5,7.7c7.77,4.49,12.06,10.17,12.06,16s-4.29,11.52-12.06,16c-8.61,5-20.15,7.7-32.5,7.7s-23.89-2.74-32.49-7.7C170.89,420.66,166.6,415,166.6,409.14Z" transform="translate(-18.27 -20.96)"/><path class="ea55528d-bc48-4133-9a22-855ef956c6a0" d="M166.6,409.14a13.29,13.29,0,0,0,1.92,6.72c2-3.39,5.4-6.57,10.15-9.3,8.59-5,20.13-7.7,32.49-7.7s23.89,2.73,32.48,7.7c4.74,2.73,8.19,5.91,10.15,9.3a13.29,13.29,0,0,0,1.92-6.72c0-5.83-4.28-11.51-12.07-16-8.59-5-20.14-7.7-32.48-7.7s-23.9,2.74-32.49,7.7C170.88,397.63,166.6,403.31,166.6,409.14Z" transform="translate(-18.27 -20.96)"/><path class="bebba934-9665-40b1-8c67-cf467a3e917a" d="M166.6,409.14a13.29,13.29,0,0,0,1.92,6.72c2-3.39,5.4-6.57,10.15-9.3,8.59-5,20.13-7.7,32.49-7.7s23.89,2.73,32.48,7.7c4.74,2.73,8.19,5.91,10.15,9.3a13.29,13.29,0,0,0,1.92-6.72c0-5.83-4.28-11.51-12.07-16-8.59-5-20.14-7.7-32.48-7.7s-23.9,2.74-32.49,7.7C170.88,397.63,166.6,403.31,166.6,409.14Z" transform="translate(-18.27 -20.96)"/><path class="b93bcc94-5178-4796-a994-9bf2112bb481" d="M178.66,399.21c8.6-5,20.14-7.7,32.49-7.7s23.89,2.74,32.5,7.7c6.41,3.71,10.44,8.23,11.66,13-1.22,4.74-5.25,9.26-11.66,13-8.61,5-20.15,7.7-32.5,7.7s-23.89-2.74-32.49-7.7c-6.42-3.71-10.45-8.23-11.66-13C168.21,407.44,172.24,402.92,178.66,399.21Z" transform="translate(-18.27 -20.96)"/><path class="bebba934-9665-40b1-8c67-cf467a3e917a" d="M199.53,436.83v13.41a64.58,64.58,0,0,1-23.25-7.54c-9.63-5.56-14.45-12.85-14.45-20.14V409.14a16.73,16.73,0,0,1,.59-4.4h0c-2.34,8.67,2.28,17.85,13.85,24.54A64.9,64.9,0,0,0,199.53,436.83Z" transform="translate(-18.27 -20.96)"/></g></g><g id="a9369a25-0ffe-4ba6-a9a5-632532dce206" data-name="freepik--Character--inject-2"><g id="a0fd8ff2-0425-4fb8-94a6-b731f08d3531" data-name="freepik--character--inject-2"><path class="f15b58cc-07b1-415d-86a7-79acc58bc889" d="M434.61,354.86c.59.24.71,1.36.75,3.59,0,1.69.32,4.65-1.66,5.19s-4.88.18-6.11-1.44c-1.54-2-2.57-3.79-4.77-6.27-1.91-2.14-4-4.15-4.71-7.11-.65-2.68,0-3.82,1.81-4.56,2.52-1,6.36,2.56,8.31,3.15C429.9,347.92,434,354.62,434.61,354.86Z" transform="translate(-18.27 -20.96)"/><path class="b829ee84-9002-4447-8a9e-44f36b7ad2a1" d="M434.66,352.8l-.06,2.73a6.67,6.67,0,0,1-6.92,0c-.12-.26-.63-3.93-.63-3.93Z" transform="translate(-18.27 -20.96)"/><path class="f15b58cc-07b1-415d-86a7-79acc58bc889" d="M412.09,370.14s.73,2.4,1.11,4.49c.3,1.66.72,4.44.11,5.67s-2.89,2-6.39,1.88c-2.27-.07-5.84,1.39-8.3,2.69s-7.75,1.78-10.39,1.41c-3.11-.44-6.3-2.32-6.77-3.62s.22-2.63,7.64-5.6c.07,0,10.3-3.1,13.94-6.94Z" transform="translate(-18.27 -20.96)"/><path class="b829ee84-9002-4447-8a9e-44f36b7ad2a1" d="M412.16,367.18s-.06,2-.08,3.19-1.42,2.86-5,2.65c-2.49-.14-4.22-.85-4.07-2.9l.07-3Z" transform="translate(-18.27 -20.96)"/><path class="ef6e1ff8-2614-4cf1-b964-bf1ff4124ea4" d="M437.26,316.51a74.5,74.5,0,0,0-2.91-14.33s1.25-12.28,2-23.94c.79-12.58,1.53-19.06-1-37.24,0,0-38.59-3.47-39.64,11.08s.44,51.67.78,58.08,1.31,12.09,2.4,22.49,4.19,34.51,4.19,34.51a9.61,9.61,0,0,0,9.05,0s3.51-29.06,3.38-36.44a63.31,63.31,0,0,0-2.44-16.18s1-12,2-22.42,1.75-15.43,2-20l.88-.41s.49,18,.83,24.44,1.21,12.57,2.79,24.49C423,331,427.24,353,427.24,353c4.59,2.61,7.42-.16,7.42-.16S438.31,325.48,437.26,316.51Z" transform="translate(-18.27 -20.96)"/><path class="f15b58cc-07b1-415d-86a7-79acc58bc889" d="M417.07,272.17s10-4.64,15-8.91c0,0-4.72,6.35-10.8,9.08,0,0-2.65,22.34-2.63,21.89l-.74-22.07Z" transform="translate(-18.27 -20.96)"/><polygon class="b829ee84-9002-4447-8a9e-44f36b7ad2a1" points="391.89 168.19 393.39 181.5 405.97 180.88 404.58 165.32 391.89 168.19"/><path class="ef6e1ff8-2614-4cf1-b964-bf1ff4124ea4" d="M429,194.25c4.68-.22,7.06.49,9.17,4.53s2.92,16.11,3.66,22.34.91,10.61-1.65,11.25-12.54.92-12.54.92Z" transform="translate(-18.27 -20.96)"/><path class="b45a9a20-a30e-41ce-bf69-cd8f51d5e417" d="M436.89,201.15c-.67-3.72-5.58-7.64-10.17-6.9l-3.11.53c-.55,2.24-6.69,3.64-12.56,2.26-1.77.47-7.59,1.56-9.07,2.05-4.21,1.4-6,5.55-6.61,19.3,0,0,.34,31.15.17,37.35,10.41,4.4,21.34,4.51,27.41,3.33,12.64-2.46,14.27-7.64,14.27-7.64l-1.88-14.25S438.43,209.59,436.89,201.15Z" transform="translate(-18.27 -20.96)"/><path class="ef6e1ff8-2614-4cf1-b964-bf1ff4124ea4" d="M410.65,193.54l.1.84a18.6,18.6,0,0,0,7.72,0c4.09-.91,4.92-2.06,4.92-2.06l-.09-1s1-.37,1.55,1.19c.23.63.43,1.26.6,1.91,0,0,.47,2.87-4.34,4.33a14.88,14.88,0,0,1-12-1.31l-1.88.4s1.63-3.76,2.12-4.52a1.25,1.25,0,0,1,1.18-.66Z" transform="translate(-18.27 -20.96)"/><polygon class="b45a9a20-a30e-41ce-bf69-cd8f51d5e417" points="353.97 158.28 329.02 171.31 341.42 205.21 364.7 192.16 353.97 158.28"/><polygon class="f54815ab-358c-4bc3-8bfc-1f80feccf09f" points="352.83 161.6 331.89 172.53 342.87 201.68 362.4 190.74 352.83 161.6"/><path class="a5e8b98f-77c5-4424-b355-9124bf257296" d="M366.68,185.72s-.18-.47-.41-1-2-.23-3.89.76l-3.68,1.91c-1.93,1-3.31,2.26-3.08,2.83l.4,1Z" transform="translate(-18.27 -20.96)"/><path class="ea55528d-bc48-4133-9a22-855ef956c6a0" d="M366.27,181.57c-.13-.36-.89-.3-1.69.13l-1.44.78s-.89-2.24-4.21-.69-2.56,4.15-2.56,4.15l-1.53.84c-.85.47-1.45,1.14-1.35,1.5l.19.66,12.85-6.7Z" transform="translate(-18.27 -20.96)"/><path class="ea55528d-bc48-4133-9a22-855ef956c6a0" d="M364.89,183.07c-1.2.59-1.67.88-1.33,1.76s.76,1.73.76,1.73l-5.68,3s-.47-1.28-.68-1.77-.63-.73-1.53-.26l-.34-.36,9-4.57Z" transform="translate(-18.27 -20.96)"/><path class="baeb4818-0a5a-46f1-b937-870822096a0d" d="M364.89,183.07c-1.2.59-1.67.88-1.33,1.76s.76,1.73.76,1.73l-5.68,3s-.47-1.28-.68-1.77-.63-.73-1.53-.26l-.34-.36,9-4.57Z" transform="translate(-18.27 -20.96)"/><path class="ea55528d-bc48-4133-9a22-855ef956c6a0" d="M366.92,185.77l-.4-1c-.23-.58-2-.24-3.89.76l-3.69,1.9c-1.92,1-3.3,2.26-3.08,2.84l.41,1Z" transform="translate(-18.27 -20.96)"/><path class="b829ee84-9002-4447-8a9e-44f36b7ad2a1" d="M402,199.09c-5.76.5-8.21,1.55-12.53,9.34-4.7,8.47-13.72,23.78-14.86,25.72-1.59,2.69-1.89,6.78-.52,9.25,1.28,2.31,5.35,3.36,10-1.85,5.49-6.2,15.7-21.34,15.7-21.34S408.41,208.77,402,199.09Z" transform="translate(-18.27 -20.96)"/><path class="b829ee84-9002-4447-8a9e-44f36b7ad2a1" d="M376.46,245.17c-4.42-.53-14.73-14.52-17.66-19.09a32.67,32.67,0,0,0-8.94-9.43c-4.67-3.45-4-8.76-1.95-13.62.7-1.68,3.1-.59,3.1-.59l.84,2.31,1.46,4c1,.92,1.56,1.22,1.62.95.13-.52-.72-2.67-.7-4.91,0-2.69,1.91-.92,2.47,0a31.68,31.68,0,0,1,2,4.45c.94,2.41.56,4.85,1.7,6.49s16.53,16.39,16.53,16.39Z" transform="translate(-18.27 -20.96)"/><path class="ef6e1ff8-2614-4cf1-b964-bf1ff4124ea4" d="M403.09,198.78c-3.49-.08-7.68.48-10.93,4.7s-16.25,27.16-16.25,27.16l-7.29-6.54A12.75,12.75,0,0,0,363,232a79.64,79.64,0,0,0,6.6,9c3.09,3.38,6.53,5.73,9.35,4.69s5.7-3.27,11.77-11.73,12.7-18.43,12.7-18.43S407.61,205.79,403.09,198.78Z" transform="translate(-18.27 -20.96)"/><path class="e624b645-7d3d-4b1c-8b8f-19cfb5b01934" d="M401.29,172.84s-3.14,4.76-2.78,5.23,2.67.89,2.67.89Z" transform="translate(-18.27 -20.96)"/><path class="f15b58cc-07b1-415d-86a7-79acc58bc889" d="M402.76,175.9a3.75,3.75,0,1,1,3.75-3.75h0A3.75,3.75,0,0,1,402.76,175.9Zm0-6.66a2.92,2.92,0,1,0,2.91,2.93h0a2.92,2.92,0,0,0-2.91-2.92Z" transform="translate(-18.27 -20.96)"/><path class="b829ee84-9002-4447-8a9e-44f36b7ad2a1" d="M410,159.65c-6.36,1.34-8.2,4.14-8.8,14.23-.62,10.56.46,13.87,1.84,15.29.94,1,6.14,1.14,8.76.41,3.29-.9,10.71-3.53,14.18-8.84,4.09-6.24,5.16-14.71.79-18.18C420.63,157.67,412.6,159.1,410,159.65Z" transform="translate(-18.27 -20.96)"/><path class="e624b645-7d3d-4b1c-8b8f-19cfb5b01934" d="M410.24,189.88l-.3-1.94a12.51,12.51,0,0,1-6.51,1.47C404.64,190,407.8,190.18,410.24,189.88Z" transform="translate(-18.27 -20.96)"/><polygon class="f15b58cc-07b1-415d-86a7-79acc58bc889" points="381.1 150.41 392.4 151.88 391.95 152.66 381.1 151.25 381.1 150.41"/><path class="f15b58cc-07b1-415d-86a7-79acc58bc889" d="M400.14,163.73a3.68,3.68,0,0,0,1.44-.09,2.25,2.25,0,0,0,.77,2.65,3.21,3.21,0,0,0,2.85.38,2.74,2.74,0,0,0-.31,2,3.18,3.18,0,0,0,3.29,2.38c.07,1.48.09,2.92,1.66,3.59,0,0,1-3.9,4.3-3.41s3.75,4.71,1.67,7.28-4,1.59-4,1.58c.19.09.26,1.34.32,1.57a11.64,11.64,0,0,0,.85,2.14,10.25,10.25,0,0,0,3,3.48,7.3,7.3,0,0,0,6,1.66,6.46,6.46,0,0,0,4.35-3.49,3.59,3.59,0,0,1,.7-1.27,4.19,4.19,0,0,1,1.62-.7,4.77,4.77,0,0,0,3-6,4.23,4.23,0,0,0-.3-.69,4.37,4.37,0,0,0,1.67-7.62,5.25,5.25,0,0,0,2.25-5.68,5.33,5.33,0,0,0-3.76-3.6c-1.29-.37-.79-.57-1.19-1.83a4.69,4.69,0,0,0-1.48-2.21,4.74,4.74,0,0,0-4.37-.81,4.43,4.43,0,0,0-3.18-3.41,4.26,4.26,0,0,0-2.24-.09c-.53.13-1.61.62-1.81,1.13-.67-.66-.89-1.53-1.7-2.12a4.84,4.84,0,0,0-6.76,1,4.65,4.65,0,0,0-.34.52,5.91,5.91,0,0,0-4.44-1.86,4.85,4.85,0,0,0-4.05,2.47,4.11,4.11,0,0,0,.55,4.62,4.82,4.82,0,0,0-2.46,2.12,3,3,0,0,0,.35,3.32,2.55,2.55,0,0,0,1.24.93A4.59,4.59,0,0,0,400.14,163.73Z" transform="translate(-18.27 -20.96)"/><path class="f15b58cc-07b1-415d-86a7-79acc58bc889" d="M409.78,176.83l.11-4.42a2.21,2.21,0,0,0-.11,4.42Z" transform="translate(-18.27 -20.96)"/></g></g></svg>